<?xml version="1.0" encoding="utf-8"?>
<!-- Generator: Adobe Illustrator 27.8.0, SVG Export Plug-In . SVG Version: 6.00 Build 0)  -->
<svg version="1.1" xmlns="http://www.w3.org/2000/svg" xmlns:xlink="http://www.w3.org/1999/xlink" x="0px" y="0px"
	 viewBox="0 0 447.32 443.26" style="enable-background:new 0 0 447.32 443.26;" xml:space="preserve">
<style type="text/css">
	.st0{opacity:0.53;fill:#DBD9D2;}
	.st1{fill:#305B5E;}
	.st2{fill:#9D4F16;}
	.st3{fill:#BDD014;}
	.st4{fill:#C67613;}
	.st5{fill:#E2E1C9;}
	.st6{fill:#F9C626;}
	.st7{opacity:0.46;}
	.st8{fill:#FF618C;}
	.st9{fill:#E9426E;}
	.st10{fill:#F5A77B;}
	.st11{fill:#DEDA00;}
	.st12{fill:#DF609F;}
	.st13{fill:#FFFFFF;}
	.st14{fill:#73C7D1;}
	.st15{fill:#E72777;}
	.st16{opacity:0.22;}
	.st17{opacity:0.26;}
	.st18{fill:#ED83A4;}
	.st19{opacity:0.39;}
	.st20{opacity:0.27;}
	.st21{opacity:0.32;}
	.st22{fill:#4A3974;}
</style>
<g id="BACKGROUND">
	<ellipse class="st0" cx="360.07" cy="410.11" rx="87.26" ry="33.16"/>
</g>
<g id="OBJECTS">
	<g>
		<g>
			<path class="st1" d="M372.06,175.33c-2.55-13.42-5.1-26.84-7.65-40.25c-2.47-12.98-6.56-26.63-7.44-39.79
				c-0.89-13.36-0.19-34.88-19.15-33.71c-104.68,6.46-210.73,13.19-310.28,46.2c-6.17,2.05-12.79,4.57-16.17,10.11
				c-3.09,5.07-2.72,11.45-2.06,17.35c6.32,55.86,30.3,109.47,29.38,165.69c-0.15,9.4-0.7,19.79,5.24,27.08
				c7.25,8.88,20.58,8.97,32.01,8.03c45.86-3.77,91.39-11.63,135.86-23.48c9.62-2.56,19.3-5.33,29.25-5.57
				c9.95-0.24,20.38,2.34,27.6,9.19c3.94,3.75,9.05,9.1,13.66,6.22c6.8-4.25-2.35-17.06,3.67-22.37c1.28-1.13,2.99-1.59,4.64-2.02
				c22.42-5.83,44.85-11.65,67.27-17.48c5.58-1.45,11.47-3.08,15.42-7.28c2.32-2.47,3.77-5.63,4.82-8.85
				c3.91-11.92,2.92-24.84,1.38-37.29c-2.67-21.58-6.87-42.97-12.56-63.96"/>
		</g>
		<g>
			<path class="st2" d="M383.91,177.62c-7.34-1.66-14.66-2.8-22.18-3.6c-11.43-1.21-24.39-0.24-34.34,5.93
				c-3.74,2.32-7.3,5.38-8.79,9.52c-2.59,7.17,1.87,15.14,7.75,20.01c0.81,0.67,1.72,1.43,1.8,2.49c0.04,0.55-0.17,1.09-0.41,1.59
				c-2.53,5.04-8.97,6.56-13.04,10.46c-5.4,5.17-5.47,14.85-0.16,20.1c1.23,1.22,2.75,2.3,3.29,3.95c0.87,2.68-1.23,5.31-2.91,7.58
				c-3.1,4.18-5.24,9.24-5.13,14.44s2.73,10.49,7.28,13c6.8,3.75,15.18,0.62,22.94,0.93c3.04,0.12,6.08,0.79,9.11,0.51
				c9.17-0.84,15.45-9.77,24.1-12.9c5.74-2.08,12.43-1.35,17.59,1.92c5.15,3.26,8.66,8.75,14.01,11.66
				c4.61,2.52,10.09,2.84,15.34,2.63c0.99-0.04,2.01-0.11,2.9-0.54c1.04-0.51,1.78-1.46,2.41-2.44c3.19-4.96,4.18-11.27,2.68-16.97
				c-1.5-5.7-5.49-10.7-10.71-13.44c5.73-4.43,6.4-14.01,1.33-19.19c-3.44-3.52-8.62-4.83-12.24-8.16
				c-5.53-5.09-6.15-13.48-6.11-20.99c0.04-7.51,0.14-15.74-4.56-21.6C392.94,180.83,388.48,178.65,383.91,177.62z"/>
		</g>
		<g>
			<path class="st3" d="M300.13,126.64c-2.49-6.07-4.98-12.14-7.47-18.21c-2.36-4.54-4.88-8.99-6.62-13.83
				c-1.01-0.73-2.02-1.45-3.07-2.14c-1.21-0.79-2.39-1.63-3.41-2.62c-2.07-1.09-3.99-2.29-5.58-3.97
				c-0.92,4.14-1.15,8.42-0.73,12.64c0.54,0.52,0.93,1.23,1.03,2.14c0.49,4.6,3.3,9.23,5.38,13.29c1.94,3.78,4.01,7.49,6.01,11.24
				c0.58,1.08,0.51,2.13,0.09,2.99c1.11,1.86,1.98,3.86,2.97,5.8c0.45,0.03,0.93-0.07,1.38-0.19c1.26-0.35,2.52-0.7,3.78-1.05
				c2.35-1.3,4.51-3,6.74-4.56C300.52,127.64,300.33,127.12,300.13,126.64z"/>
		</g>
		<g>
			<path class="st4" d="M376.7,108.62c-0.13-1.51-0.25-3.01-0.38-4.52c-0.95-11.58-1.86-23.3-5.15-34.5c-0.74-2.53-2-5.06-2.32-7.69
				c-0.21-1.7,0.22-3.36,0.09-5.05c-0.35-4.78-5.07-7.62-9.09-9.14c-2.26-0.85-4.03-2.22-6.51-2.61c-2.88-0.45-5.84-0.06-8.7,0.33
				c-67.09,9.06-134.19,18.12-201.28,27.18c-42.48,5.74-85.11,11.51-126.41,22.99c-4.58,1.27-9.45,2.83-12.33,6.6
				c-3.33,4.37-3.05,10.41-2.6,15.89c1.15,14.31,4.3,28.62,6.31,42.9c1.23,8.73,2.89,17.42,3.64,26.21
				c0.75,8.87-0.25,17.59,0.61,26.45c1.44,14.75,3.4,29.45,5.88,44.06c0.92,5.44,2.89,10.39,3.3,15.86
				c0.48,6.27,0.99,12.54,1.7,18.79c0.92,8.16,2.16,16.3,4.03,24.31c1.67,7.14,4.71,13.47,6.56,20.47c0.54,2.07,1.24,4.19,2.76,5.7
				c3.01,3.01,7.94,2.5,12.13,1.77c65.91-11.36,131.83-22.72,197.74-34.09c1.86-0.32,3.8-0.63,5.59-0.04
				c2.12,0.7,3.62,2.52,5.12,4.17c9.55,10.51,25.87,18.52,40.37,16.61c-3.23-3.23-4.92-7.93-6.78-12.02
				c-1.27-2.78-3.12-6.09-1.62-8.71c-0.55-1.64-0.01-3.72,2.11-4.41c9.66-3.13,19.74-4.12,29.82-4.98
				c6.88-1.25,13.73-2.62,20.49-4.37c3.89-4.22,5.46-10.91,1.93-15.33c-11.89,2.12-23.78,4.25-35.67,6.37
				c-1.84,0.33-30.86,6.24-30.96,5.29c0.88,8.5,1.03,17.08,0.43,25.6c-3.96-2.88-7.94-5.78-11.32-9.33
				c-3.38-3.55-6.15-7.81-7.21-12.59c-3.78,0.88-7.11,0.58-10.91,1.11c-15.06,2.11-30.27,4.85-45.09,7.45
				c-6.86,1.2-14.96,1.5-21.44,4.09c-5.51,2.2-10.73,2.62-16.63,3.5c-10.04,1.49-20.1,2.87-30.16,4.15
				c-19.21,2.44-38.5,3.57-57.55,6.65c-4.61,0.75-10.46,0.74-14.8,2.43c-3.6,1.4-5.88,3.21-9.85,0.73c-2.79-1.74-4.6-4.69-5.94-7.7
				c-3.28-7.36-4.21-15.64-5.24-23.61c-0.64-5-2.12-9.9-2.45-14.88c-0.9-13.76-2.11-27.68-5.95-40.98
				c-2.26-7.82-2.81-16.49-4.04-24.56c-1.25-8.21-2.52-16.41-3.76-24.62c-3.21-21.03-6.42-42.1-7.44-63.35
				c-0.15-3.15-0.21-6.49,1.33-9.23c1.71-3.05,5.05-4.76,8.25-6.16c13.7-5.95,28.1-4.99,42.44-7.52c9.28-1.64,18.58-3.19,27.89-4.65
				c4.66-0.73,9.32-1.44,13.98-2.13c3.83-0.56,7.09-1.87,10.83-2.62c2.78-0.56,5.21-1.85,7.98-2.38c4-0.76,8.16-1.04,12.21-1.55
				c7.94-1.01,15.87-2.02,23.81-3.03c20.54-2.66,41.02-5.74,61.49-8.89c10.24-1.58,20.48-3.18,30.73-4.75
				c5.17-0.8,9.97-2.64,15.08-3.32c6.76-0.9,13.52-1.77,20.28-2.66l21.47-2.81c9.41-1.23,18.69-2.5,28.2-2.86
				c6.58-0.25,11.37,2.49,11.14,9.74c-0.18,5.67,1.74,11.84,2.66,17.45c1.66,10.02,3.19,20.06,4.61,30.12
				c0.32,2.29,0.41,4.76,1.08,6.98c0.42,1.36,1.19,2.55,1.52,3.94c1.13,4.77,1.23,10.03,1.75,14.91c1.07,10.09,2,20.2,2.78,30.32
				c6.15,0.81,12.31,1.62,18.46,2.43C382.41,155.52,378.72,132.14,376.7,108.62z"/>
		</g>
		<g>
			<path class="st5" d="M285.79,95.87c-2.27-2.07-4.71-3.95-7.28-5.65c-1.65,0.89-3.41,1.57-5.31,1.51c0.06,2.94,0.25,5.88,0.63,8.8
				c0.07,0.5,0.2,1.1,0.68,1.28c0.31,0.12,0.66,0.01,0.97-0.12c1.15-0.45,2.25-1.02,3.34-1.59c2.28-1.18,4.56-2.37,6.83-3.55
				c0.15-0.08,0.33-0.19,0.33-0.36C285.99,96.06,285.89,95.96,285.79,95.87z"/>
		</g>
		<g>
			<path class="st6" d="M347.37,133.62c-2.13-5.38-5.73-10.32-10.73-13.23c-4.24-2.47-9.55-3.27-14.18-1.79
				c-4.06,0.54-7.92,2.48-10.71,5.48c-0.01,0.03-0.02,0.06-0.04,0.09c-1.23,2.46-2.24,5.12-2.99,7.86c0.28,0.45,0.48,0.99,0.51,1.64
				c0.26,4.93,1.2,9.65,2.69,14.28c0.3,0.17,0.59,0.37,0.86,0.67c4.98,5.42,11.33,7.38,18.29,8.84c3.79-0.55,7.51-1.99,10.61-4.19
				c3.3-2.35,6.18-5.61,7.03-9.57C349.45,140.34,348.64,136.82,347.37,133.62z"/>
		</g>
		<g class="st7">
			<path class="st6" d="M12.02,187.03c-3.57-24.37-7.13-48.75-10.7-73.12c-0.58-3.98-1.1-8.33,0.98-11.77
				c1.9-3.15,5.54-4.77,8.99-6.04c22.19-8.14,45.93-9.54,69.26-11.57c10.21-0.89,20.59-4.39,30.88-6.05
				c21.51-3.47,42.39-8.22,64.29-8.04c-37.24,9.66-74.86,16.75-112.87,22.54c-15.49,2.36-31.56,5-44.43,13.93
				c-2.64,1.83-5.16,3.97-6.78,6.75c-3.15,5.41-2.37,12.14-1.61,18.35c2.28,18.74,3.41,37.63,3.38,56.51c0,1.39-0.09,2.96-1.15,3.86
				"/>
		</g>
		<g>
			<path class="st8" d="M326.88,85.68c2.59-3.3,6.54-5.5,10.71-5.96c0.62-0.07,1.28-0.1,1.85,0.17c0.78,0.36,1.23,1.18,1.59,1.97
				c1.09,2.37,1.89,4.96,1.65,7.55c-0.37,4.15-3.26,7.59-6.01,10.72c-1.78,2.03-3.7,4.14-6.27,4.94c-3.55,1.1-7.33-0.59-10.46-2.58
				c-2.95-1.88-5.8-4.18-7.29-7.35c-1.5-3.16-1.29-7.34,1.28-9.72c1.67-1.54,4.06-2.11,6.33-1.95s4.43,0.97,6.5,1.89"/>
		</g>
		<g>
			<path class="st9" d="M319.66,16.81c-5.51-1.68-11.43,2.81-13.19,8.3c-1.76,5.49-0.4,11.47,1.47,16.92
				c1.04,3.05,2.46,6.29,5.31,7.79c2.11,1.11,4.61,1.05,6.99,0.94c9.64-0.47,19.26-1.43,28.81-2.88c1.7-0.26,3.44-0.55,4.92-1.42
				c1.26-0.74,2.26-1.87,3.09-3.08c3.02-4.37,4.09-10.04,2.87-15.21s-4.72-9.76-9.37-12.31c-1.56-0.86-3.26-1.5-5.04-1.63
				c-6.01-0.45-11.41,4.87-17.4,4.17c-3.86-0.45-7.38-3.38-11.21-2.7"/>
		</g>
		<g>
			<path class="st3" d="M331.72,12.71c-2.57-0.36-4.95-1.91-6.32-4.12c-1.37-2.21-1.71-5.03-0.89-7.49
				c0.05-0.16,0.11-0.32,0.23-0.43c0.21-0.19,0.54-0.17,0.81-0.1c1.5,0.4,2.41,1.89,3.06,3.3c1.29,2.81,2.16,5.81,2.55,8.88"/>
		</g>
		<g>
			<path class="st3" d="M331.92,12.54c2.53-3.09,6.96-4.48,10.8-3.38c0.23,0.22,0.23,0.6,0.08,0.88c-0.15,0.28-0.41,0.48-0.67,0.66
				c-3.02,2.07-6.85,2.91-10.46,2.29"/>
		</g>
		<g>
			<path class="st10" d="M362.46,180.63c-8.4,0.48-17.09,4.84-20.41,12.57c-1.12,2.6-1.58,5.44-2.04,8.23
				c-0.68,4.18-1.36,8.35-2.04,12.53c-0.5,3.07-1,6.19-0.71,9.29c0.87,9.18,9.03,16.67,18.1,18.36c1.26,0.24,2.57,0.39,3.71,0.98
				c2.36,1.22,1.87,3.76,0.4,5.61c-0.57,0.72-1.35,1.38-1.45,2.3c-0.08,0.67,0.23,1.31,0.53,1.91c0.74,1.49,1.49,3,2.6,4.23
				c1.11,1.24,2.64,2.19,4.31,2.23c1.84,0.05,3.56-1.03,4.74-2.45c3.59-4.31,1.78-8.71,0.88-13.74c8.52-0.18,16.71-5.63,20.18-13.41
				c0.33-0.73,0.64-1.52,1.29-1.99c0.53-0.38,1.2-0.48,1.84-0.6c3.7-0.69,7.34-2.34,9.74-5.23c2.4-2.9,3.3-7.19,1.6-10.54
				c-1.71-3.35-6.3-5.13-9.54-3.22c-1.58,0.93-2.66,2.52-4.04,3.72c-2.66,2.3-6.57,3.05-9.89,1.9c-3.32-1.15-5.93-4.16-6.6-7.61
				c-0.44-2.27-0.28-5.03-2.16-6.38c-0.68-0.49-1.52-0.68-2.32-0.95c-6.8-2.25-10.64-10.89-7.74-17.45"/>
		</g>
		<g>
			<path class="st10" d="M314.95,314.63c-3.71,0.5-7.83,1.24-10.05,4.25c0.91,0.95,2.3,1.41,3.59,1.2c-1.94,1.15-4.04,2.5-4.62,4.68
				c-0.13,0.5-0.17,1.06,0.1,1.5c0.34,0.57,1.12,0.78,1.77,0.63s1.21-0.57,1.7-1.03c0.81-0.74,1.52-1.59,2.12-2.52
				c-0.43,1.58-0.85,3.15-1.28,4.73c-0.3,1.1-0.32,2.7,0.8,2.93c0.45,0.09,0.9-0.12,1.29-0.37c1.98-1.3,2.87-3.71,3.63-5.95
				c1.03,1.54-0.67,4.07,0.7,5.33c0.75,0.69,2.05,0.41,2.72-0.37s0.82-1.87,0.79-2.89c-0.03-0.97-0.21-1.94-0.53-2.86
				c0.62,1.23,1.74,2.19,3.05,2.62c0.07-2.06-0.18-4.13-0.73-6.12c-0.11-0.41-0.24-0.81-0.46-1.17c-0.48-0.8-1.35-1.29-2.17-1.74
				c-1.8-0.98-3.6-1.96-5.4-2.94"/>
		</g>
		<g>
			<path class="st10" d="M345.77,353.02c-6.63,13.93-9.73,29.52-8.93,44.92c3.65-0.32,7.36,0.19,10.79,1.49
				c0.53,0.2,1.15,0.41,1.62,0.1c0.37-0.24,0.49-0.71,0.58-1.14c3.18-14.21,5.96-28.51,8.35-42.87c-4.09-0.74-8.18-1.48-12.27-2.22"
				/>
		</g>
		<g>
			<path class="st10" d="M374.37,355.04c3.78,11.8,7.83,23.52,12.16,35.13c0.16,0.43,0.34,0.88,0.73,1.12
				c0.52,0.31,1.18,0.11,1.75-0.09c2.19-0.79,4.39-1.59,6.58-2.38c0.54-0.19,1.12-0.42,1.41-0.91c0.29-0.48,0.23-1.08,0.17-1.63
				c-1.4-11.39-4.41-22.59-8.91-33.15c-0.13-0.31-0.28-0.63-0.54-0.84c-0.46-0.35-1.1-0.25-1.66-0.13
				c-4.13,0.88-8.25,1.75-12.38,2.63"/>
		</g>
		<g>
			<path class="st11" d="M390.13,408.16c1.81-0.95,3.99-0.18,5.92,0.5c0.5,0.17,1.01,0.34,1.54,0.34c0.95-0.01,1.79-0.57,2.61-1.06
				c1.97-1.18,4.33-2.04,6.55-1.43c1.82,0.5,3.25,1.92,4.36,3.44c-6.26,1.69-12.77,2.47-19.26,2.3c-0.28-0.01-0.6-0.03-0.79-0.23
				c-0.13-0.14-0.19-0.34-0.23-0.53c-0.31-1.34-0.47-2.72-0.49-4.1"/>
			<g>
				<path class="st11" d="M390.26,408.64c3.14-1.26,5.78,1.63,8.82,0.48c1.54-0.58,2.82-1.6,4.44-2.1c3.04-0.94,5.43,0.91,7.16,3.16
					c0.1-0.24,0.2-0.49,0.3-0.73c-3.85,1.01-7.75,1.7-11.72,2.06c-1.85,0.17-3.7,0.22-5.55,0.24c-1.2,0.01-2.23,0.41-2.56-1.23
					c-0.21-1.04-0.27-2.1-0.3-3.16c-0.02-0.64-1.02-0.65-1,0c0.04,1.22-0.1,4.02,0.86,4.98c0.99,0.99,3.65,0.4,4.86,0.37
					c5.3-0.12,10.57-0.97,15.69-2.31c0.28-0.07,0.5-0.48,0.3-0.73c-2.17-2.82-4.67-4.36-8.29-3.62c-0.89,0.18-1.74,0.62-2.55,1.01
					c-1.98,0.96-2.89,1.66-5.26,0.84c-1.84-0.63-3.61-0.98-5.45-0.24C389.4,407.92,389.66,408.88,390.26,408.64L390.26,408.64z"/>
			</g>
		</g>
		<g>
			<path class="st11" d="M334.59,414.48c-2.91,0.49-4.72,3.34-6.16,5.91c3.97-0.38,7.94-0.77,11.91-1.15
				c1.59-0.15,3.25-0.33,4.58-1.22c1.33-0.89,2.17-2.72,1.41-4.13c-2.59-0.25-5.25,0.34-7.49,1.66c-0.24,0.14-0.5,0.3-0.78,0.28
				c-0.35-0.02-0.62-0.3-0.88-0.53c-0.68-0.59-1.56-0.95-2.46-1c-0.18-0.01-0.38,0-0.49,0.14s0.01,0.41,0.18,0.36"/>
			<g>
				<path class="st11" d="M334.45,414c-3.18,0.75-4.93,3.46-6.45,6.14c-0.17,0.3,0.04,0.79,0.43,0.75c4.78-0.46,9.71-0.62,14.43-1.5
					c2.65-0.49,4.97-2.84,3.95-5.62c-0.08-0.22-0.24-0.35-0.48-0.37c-2.48-0.15-4.72,0.29-6.98,1.31c-2.01,0.91-3.16-1.34-5.25-0.74
					c-0.23,0.07-0.35,0.26-0.37,0.48c-0.01,0.08-0.01,0.17-0.02,0.25c-0.01,0.17,0.1,0.35,0.25,0.43c0.06,0.04,0.13,0.07,0.19,0.11
					c0.57,0.31,1.07-0.56,0.5-0.86c0.92,0.5,1.77,1.17,2.68,1.7c0.25,0.15,0.56,0.3,0.86,0.24c0.63-0.13,1.08-0.43,1.66-0.74
					c1.71-0.93,3.7-1.21,5.61-1.23c0.86,1.04,0.74,2-0.36,2.89c-0.75,0.61-1.58,1.01-2.51,1.19c-1.65,0.45-3.53,0.44-5.23,0.6
					c-2.98,0.29-5.96,0.57-8.93,0.86c0.14,0.25,0.29,0.5,0.43,0.75c1.39-2.45,2.92-5,5.86-5.68
					C335.35,414.81,335.08,413.85,334.45,414L334.45,414z"/>
			</g>
		</g>
		<g>
			<path class="st12" d="M398.19,345.47c-1.74-6.89-3.48-13.79-5.23-20.68c-0.82-3.24-1.64-6.47-2.45-9.71
				c-0.22-0.87-0.44-1.77-0.3-2.65c0.18-1.1,0.88-2.02,1.51-2.94c4.04-5.98,5.12-13.43,5.62-20.63c0.37-5.25,0.47-10.65-1.16-15.65
				c-3.18-9.76-12.16-16.16-20.93-21.68c-2.05,3.4-5.07,7.56-8.78,8.28c-5.64,1.1-7.6-4.62-9.26-8.89l-0.43,0.44
				c-7.18,4.44-14.6,9.16-19.05,16.34c-1.99,3.22-3.3,6.8-4.73,10.3c-5.15,12.68-11.96,24.69-20.2,35.61
				c1.32,2.32,3.59,5.01,6.08,4.06c0.73-0.28,1.3-0.84,1.86-1.39c11.5-11.34,23.29-23.11,29.43-38.05
				c-7.47,22.11-13.54,44.7-18.17,67.58c-0.18,0.9-0.35,1.89,0.08,2.71c0.34,0.65,1.01,1.07,1.65,1.43
				c8.23,4.66,17.9,6.3,27.36,6.07s18.77-2.27,27.94-4.55c2.74-0.68,5.5-1.4,7.96-2.78c0.49-0.28,1-0.61,1.25-1.12
				C398.53,346.92,398.36,346.16,398.19,345.47z"/>
		</g>
		<g>
			<path class="st13" d="M337.79,396.38c-1.02,4.93-0.95,10.09,0.19,15c0.07,0.3,0.14,0.61,0.04,0.9c-0.34,0.96-2.02,0.53-2.61,1.37
				c0.46,1.06,1.02,2.07,1.68,3.01c2.79-1.79,6.1-2.76,9.41-2.76c0.38,0,0.81-0.01,1.04-0.31c0.11-0.15,0.15-0.34,0.19-0.52
				c0.92-4.63,1.6-9.3,2.03-14c-4.23-1.14-8.54-1.99-12.89-2.53"/>
		</g>
		<g>
			<path class="st13" d="M386.08,390.74c3.09-0.96,6.27-1.64,9.48-2.04c0.52-0.06,1.12-0.1,1.5,0.27c0.25,0.24,0.34,0.6,0.42,0.94
				c1.2,5.29,2.17,10.63,2.9,16c1.11-0.2,2.27-0.09,3.32,0.31c-0.92,0.67-1.85,1.35-2.77,2.02c-0.33,0.24-0.67,0.48-1.07,0.54
				c-0.33,0.04-0.67-0.05-0.99-0.15c-2.64-0.82-5.51-1.89-8.06-0.83c-1.43-4.59-2.85-9.19-4.28-13.78
				c-0.35-1.11-0.69-2.34-0.24-3.41"/>
		</g>
		<g>
			<path class="st13" d="M357.25,251.92c0.41,1.92,1.45,3.7,2.92,5.01c1.08,0.96,2.44,1.67,3.88,1.74c2.16,0.1,4.13-1.21,5.71-2.68
				c1.61-1.49,3.03-3.23,3.85-5.26c3.33,3.1,3.88,8.54,1.8,12.58c-0.79,1.53-1.97,2.94-3.56,3.58c-1.77,0.71-3.92,0.31-5.33-0.97
				c-1.41-1.28-1.99-3.39-1.45-5.22c-0.74,1.88-2.09,3.62-3.95,4.4c-1.87,0.78-4.28,0.4-5.53-1.19c-0.63-0.8-0.92-1.82-1.08-2.82
				c-0.55-3.32,0.12-6.83,1.87-9.72"/>
		</g>
		<g>
			<path class="st14" d="M377.08,251.79c-4.69,3.6-7.77,9-9.38,14.68c-2.5,8.81-2.37,18.81,0.26,27.58
				c1.6,5.35,4.04,10.51,7.24,15.09c3.55,5.09,10.08,7.46,15.8,9.13c-1.02-0.3-2.59-10.58-2.94-11.97
				c-0.89-3.47-2.05-4.19-4.39-6.57c-5.18-5.27-7.28-14.01-7.42-21.15c-0.15-7.46,1.76-14.87,4.8-21.69
				c4.52,0.73,8.32,4.05,10.61,8.02c2.29,3.97,3.28,8.54,3.98,13.07c1.22,7.86,2.27,16.49-0.11,24.39
				c-1.15,3.83-3.89,6.62-5.27,10.2c-1.11,2.88,0.57,9.39,3.17,11.27c2.56,1.84,8.74-0.62,11.36-1.49
				c10.4-3.43,17.52-12.5,20.06-23.09c1.39-5.8-0.38-12.56-1.63-18.36c-1.21-5.59-4.01-10.63-5.55-16.11
				c-1.3-4.6-4.53-9.41-8.64-11.95c-3.77-2.33-8.26-3.18-12.64-3.26c-7-0.12-12.86-1.77-19.33,2.48"/>
		</g>
		<g>
			<path class="st15" d="M354.61,217.08c3.46-0.28,6.81-1.77,9.34-4.15c1.08,1.42,1.92,3.06,2.14,4.83s-0.27,3.67-1.53,4.92
				c-1.88,1.87-5.35,1.73-7.08-0.27c-0.57-0.66-0.95-1.46-1.33-2.26c-0.52-1.09-1.03-2.18-1.55-3.27"/>
		</g>
		<g class="st16">
			<path class="st15" d="M401.11,210.88c-3.71,0.71-6.81,3.93-7.38,7.67c-0.06,0.42-0.1,0.85,0.01,1.26
				c0.28,1.09,1.53,1.72,2.65,1.61c1.12-0.11,2.1-0.8,2.91-1.58c1.48-1.45,2.53-3.33,3-5.35c0.3-1.27,0.33-2.72-0.44-3.78
				c-0.08-0.12-0.2-0.24-0.34-0.23c-0.14,0-0.25,0.22-0.12,0.29"/>
		</g>
		<g class="st16">
			<path class="st15" d="M347.44,223.66c2.95-1.06,3.29-4.82,1.54-7.11c-0.99-1.3-4.23-1.56-5.69-1.25
				c-1.28,0.28-2.47,1.15-2.93,2.38c-0.68,1.85,0.45,3.97,2.06,5.1C343.87,223.81,345.78,224.25,347.44,223.66z"/>
		</g>
		<g class="st16">
			<path class="st15" d="M374.82,214.3c-2.16,0.49-4.01,2.2-4.67,4.32c-0.2,0.65-0.3,1.35-0.12,2.01c0.36,1.36,1.8,2.18,3.2,2.4
				c2.68,0.42,5.54-1.01,6.83-3.39c0.45-0.83,0.72-1.8,0.52-2.72c-1-4.76-6.22-2.53-8.76-1.11"/>
		</g>
		<g class="st7">
			<path class="st6" d="M270.82,57.81c27.88-3.33,55.77-6.65,83.65-9.98c3.69-0.44,7.86-0.74,10.67,1.68
				c2.19,1.89,2.93,4.92,3.54,7.75c2.14,9.85,4.28,19.69,6.42,29.54c2.26,10.41,4.53,21.16,2.59,31.64
				c-3.5-15.99-7.89-31.79-13.13-47.3c-1.1-3.26-2.29-6.6-4.58-9.18c-2.9-3.27-7.22-4.92-11.51-5.73
				c-5.05-0.96-10.22-0.91-15.36-0.83c-20.78,0.32-41.55,1.16-62.29,2.5"/>
		</g>
		<g class="st7">
			<path class="st6" d="M22.96,285.7c1.66,16.37,4.52,32.62,8.57,48.58c0.62,2.43,1.35,5.01,3.22,6.67
				c1.62,1.44,3.83,1.97,5.97,2.32c11.26,1.89,22.8,0.38,34.08-1.37c10.56-1.64,21.09-3.48,31.61-5.32
				c7.26-1.27,14.52-2.54,21.77-3.81c6.03-1.06,12.13-2.13,17.69-4.69c-6.61-1.23-13.42-0.44-20.1,0.35
				c-16.81,1.99-33.61,3.98-50.42,5.98c-8.04,0.95-16.17,1.91-24.21,0.95c-4.11-0.49-8.4-1.61-11.24-4.62
				c-2.03-2.15-3.08-5.03-4.08-7.81c-4.49-12.55-8.99-25.1-13.48-37.65"/>
		</g>
		<g class="st17">
			<path class="st1" d="M28.27,206.56c-5.54-26.87-8.61-54.26-9.15-81.69c-0.07-3.8,0.04-7.98,2.57-10.81
				c2.34-2.6,6.07-3.31,9.53-3.86c59.24-9.53,118.49-19.07,177.73-28.6c30.55-4.92,61.11-9.84,91.78-13.96
				c14.44-1.94,29.89-5.38,44.48-5.24c11.51,0.11,12.16,17.69,12.71,26.41c-1.75-0.57-2.3-2.72-2.79-4.5
				c-3.17-11.67-13.38-13.13-23.91-13.86c-23.1-1.6-46.13,2.9-68.87,7.26c-74.47,14.25-149.21,27.11-224.16,38.58
				c-4.12,0.63-8.59,1.43-11.38,4.53c-3,3.32-3.16,8.25-2.94,12.72c0.4,7.79-0.06,16.11,0.93,23.76
				c1.36,10.55,3.19,21.04,4.54,31.59c2.69,21.1,4.72,42.29,6.07,63.52"/>
		</g>
		<g>
			<path class="st18" d="M327.37,19.18c-2.27-1.16-4.56-2.33-7.03-2.95c-2.47-0.63-5.17-0.67-7.49,0.37
				c-1.41,0.63-2.63,1.65-3.65,2.81c-4.18,4.76-4.93,11.81-3.39,17.96c1.32,5.29,4.59,10.53,9.75,12.29
				c-3.14-5.5-5.83-11.81-4.54-18.01c0.38-1.82,1.15-3.64,2.56-4.85c2.19-1.87,5.34-1.91,8.21-2.06c3.8-0.2,7.59-0.79,11.27-1.75
				c2.18-0.57,4.38-1.28,6.19-2.63c1.81-1.34,3.21-3.41,3.26-5.67c-5.53,3.89-12.82,5.17-19.34,3.38"/>
		</g>
		<g class="st19">
			<path class="st10" d="M364.09,181.05c-3.63,0.35-7.3,0.7-10.76,1.84s-6.76,3.16-8.77,6.2c-1.89,2.87-2.48,6.38-3.04,9.77
				c-0.82,5.06-1.64,10.11-2.46,15.17c-0.84,5.19-1.64,10.77,0.66,15.5c3.08,6.35,10.69,9.07,17.7,9.92
				c-4.28-2.68-8.8-5.63-10.78-10.27c-1.48-3.47-1.3-7.4-1-11.15c0.43-5.32,1.06-10.63,1.89-15.91c0.42-2.68,0.92-5.4,2.23-7.78
				c2.54-4.59,7.63-7.05,12.47-9.07c0.41-1.33,0.82-2.67,1.23-4"/>
		</g>
		<g class="st20">
			<path class="st10" d="M366.4,175.12c-5.08,0.26-10.16,0.52-15.24,0.78c-5.7,0.29-11.47,0.6-16.94,2.24
				c-5.47,1.65-10.7,4.79-13.71,9.65c-3.01,4.85-3.36,11.57,0.09,16.12c2.36,3.12,6.14,4.91,8.55,7.99
				c0.29,0.37,0.57,0.82,0.45,1.27c-0.08,0.29-0.3,0.51-0.53,0.72c-4.01,3.7-8.96,6.33-12.68,10.33c-3.71,4-5.98,10.2-3.25,14.92
				c1.16,2,3.04,3.45,4.58,5.18c1.53,1.73,2.77,4.04,2.2,6.28c-0.72,2.78-3.8,4.15-5.56,6.41c-1.49,1.91-1.98,4.4-2.31,6.81
				c-0.5,3.65-0.72,7.43,0.28,10.98c1,3.55,3.4,6.87,6.85,8.17c-1.66-3.77-3.35-8.03-1.91-11.89c1.34-3.59,4.98-5.72,7.3-8.77
				c2.06-2.71,3.04-6.23,2.69-9.62c-0.59-5.61-4.54-10.21-6.83-15.36c-0.44-0.98-0.82-2.01-0.82-3.08
				c-0.02-3.42,3.53-5.58,6.51-7.26c4.37-2.46,8.79-5.81,9.96-10.69c0.51-2.15,0.33-4.4-0.07-6.57c-0.58-3.11-1.61-6.14-3.06-8.96
				c-1.09-2.13-2.45-4.22-2.7-6.6c-0.47-4.46,3.22-8.46,7.38-10.14c4.51-1.82,9.39-1.59,14.11-2.32c3.51-0.55,6.35-2.08,9.59-3.36
				c2.74-1.09,4.92-1.25,7.52,0.35c4.36,2.68,5.9,5.92,6,10.77c0.11,5.13,4.86,8.76,9.14,11.59c3.16,2.09,6.32,4.17,9.48,6.26
				c-0.9,2.84-3.91,4.64-6.89,4.81s-5.87-1.05-8.38-2.65c-1.63-1.04-3.21-2.35-3.92-4.15c-0.8-2.05-0.42-4.62-1.9-6.26
				c-1.27-1.4-3.39-1.54-5.09-2.36c-2.8-1.36-4.29-4.62-4.42-7.73c-0.23-5.44,1.17-9.86,5.81-12.5c-0.79-1.03-2.23-1.46-3.49-1.07"
				/>
		</g>
		<g>
			<g>
				<g class="st21">
					<g>
						<path class="st4" d="M343.62,48.37c2.69,2.22,5.97,2.85,9.34,3.38c4.32,0.68,8.71,0.85,13.07,0.65c0.64-0.03,0.64-1.03,0-1
							c-3.41,0.15-6.79,0.06-10.18-0.28c-3.89-0.39-8.4-0.89-11.52-3.46C343.83,47.26,343.12,47.96,343.62,48.37L343.62,48.37z"/>
					</g>
					<g>
						<g>
							<path class="st4" d="M3.43,105.08c4.48,2.48,9.5-0.24,13.28-2.82c5.25-3.58,8.81-9.96,15.51-11.02
								c0.64-0.1,0.36-1.06-0.27-0.96c-5.07,0.8-8.47,4.59-11.98,7.99c-3.73,3.61-10.65,8.94-16.04,5.96
								C3.37,103.91,2.86,104.77,3.43,105.08L3.43,105.08z"/>
						</g>
						<g>
							<path class="st4" d="M7.05,97.28c1.45,1.36,3.26,1.14,5.06,0.64c3.08-0.86,6.05-2.3,8.81-3.89c0.56-0.32,0.05-1.19-0.5-0.86
								c-1.97,1.14-3.99,2.12-6.12,2.95c-1.84,0.72-4.79,2.1-6.55,0.46C7.29,96.13,6.58,96.84,7.05,97.28L7.05,97.28z"/>
						</g>
						<g>
							<path class="st4" d="M29.97,93c6.15,12.26,21.72,10.15,32.06,5.31c13.4-6.28,24.89-18.32,40.66-17.91
								c0.65,0.02,0.64-0.98,0-1c-13.08-0.34-23.77,7.92-34.42,14.36c-6.15,3.72-12.75,6.89-20.01,7.49
								c-6.95,0.58-14.2-2.32-17.43-8.76C30.54,91.92,29.68,92.43,29.97,93L29.97,93z"/>
						</g>
						<g>
							<path class="st4" d="M39.52,90.32c5.21,3.46,11.43,4.5,17.52,3.21c3.4-0.72,6.27-2.53,9.14-4.39
								c3.62-2.35,7.59-3.82,11.87-4.35c0.63-0.08,0.64-1.08,0-1c-2.97,0.37-5.77,1.14-8.51,2.34c-3.45,1.51-6.31,4.06-9.79,5.52
								c-6.42,2.68-14.01,1.6-19.73-2.19C39.48,89.1,38.98,89.97,39.52,90.32L39.52,90.32z"/>
						</g>
						<g>
							<path class="st4" d="M76.71,101.39c7.29-5.31,15.53-7.69,24.48-8.04c9.5-0.38,19,0.74,28.5,0.78c0.64,0,0.64-1,0-1
								c-9.82-0.04-19.62-1.13-29.44-0.74c-8.73,0.35-16.96,2.98-24.04,8.14C75.69,100.9,76.19,101.77,76.71,101.39L76.71,101.39z"
								/>
						</g>
						<g>
							<path class="st4" d="M105.63,80.76c14.11,8.48,31.16,5.17,45.82,0.06c8.42-2.93,16.62-6.47,25.21-8.94
								c9.55-2.74,19.49-3.92,29.38-4.55c0.64-0.04,0.64-1.04,0-1c-8.72,0.55-17.4,1.59-25.91,3.6c-8.74,2.07-17.07,5.55-25.47,8.66
								c-15.32,5.68-33.48,10.32-48.51,1.29C105.58,79.56,105.08,80.43,105.63,80.76L105.63,80.76z"/>
						</g>
						<g>
							<path class="st4" d="M143.38,92.22c18.41-11.72,41.1-15.72,62.4-10.95c0.63,0.14,0.9-0.82,0.27-0.96
								c-21.55-4.82-44.54-0.81-63.17,11.05C142.34,91.7,142.84,92.56,143.38,92.22L143.38,92.22z"/>
						</g>
						<g>
							<path class="st4" d="M164.82,87.77c7.02-2.61,14.39-3.71,21.87-3.27c0.64,0.04,0.64-0.96,0-1
								c-7.56-0.45-15.03,0.66-22.13,3.3C163.96,87.02,164.22,87.99,164.82,87.77L164.82,87.77z"/>
						</g>
						<g>
							<path class="st4" d="M124.4,77.77c11.11,4.72,22.71,0.19,32.7-5.16c0.57-0.3,0.06-1.17-0.5-0.86
								c-9.61,5.15-20.95,9.71-31.69,5.16C124.32,76.66,123.81,77.52,124.4,77.77L124.4,77.77z"/>
						</g>
						<g>
							<path class="st4" d="M215.28,66.02c4.54,5.51,11.48,7.98,18.48,6.66c3.53-0.67,6.75-2.56,9.33-5.01
								c1.64-1.55,2.88-3.29,4.87-4.45c1.6-0.93,3.22-1.44,4.53-2.79c0.45-0.46-0.26-1.17-0.71-0.71c-2.09,2.16-5.18,2.85-7.34,5.04
								c-2.63,2.68-5.03,4.94-8.63,6.3c-7.13,2.69-15.1-0.01-19.83-5.75C215.57,64.81,214.87,65.53,215.28,66.02L215.28,66.02z"/>
						</g>
						<g>
							<path class="st4" d="M222.5,65.03c2.9,1.95,5.91,3.7,9.49,2.71c2.91-0.8,4.97-3.66,6.67-5.95c0.38-0.52-0.48-1.02-0.86-0.5
								c-1.65,2.23-3.41,4.46-6.07,5.49c-3.09,1.2-6.27-0.96-8.72-2.61C222.47,63.8,221.97,64.67,222.5,65.03L222.5,65.03z"/>
						</g>
						<g>
							<path class="st4" d="M250.2,69.26c17.2-7.73,38.62-0.3,54.28-12.35c0.5-0.39,0.01-1.26-0.5-0.86
								c-15.6,12-37.09,4.63-54.28,12.35C249.11,68.66,249.61,69.52,250.2,69.26L250.2,69.26z"/>
						</g>
						<g>
							<path class="st4" d="M270.86,57.24c10.4,5.5,22.98,3.5,31.11-5.01c0.45-0.47-0.26-1.17-0.71-0.71
								c-7.82,8.18-19.88,10.15-29.9,4.85C270.79,56.08,270.29,56.94,270.86,57.24L270.86,57.24z"/>
						</g>
						<g>
							<path class="st4" d="M295.4,68.24c14.29-8.91,32.18-10.79,48.01-5.05c0.61,0.22,0.87-0.75,0.27-0.96
								c-16.06-5.82-34.29-3.88-48.78,5.16C294.34,67.72,294.85,68.58,295.4,68.24L295.4,68.24z"/>
						</g>
						<g>
							<path class="st4" d="M321.57,51.38c6.29,5.76,15.06,4.68,22.92,4.59c8.39-0.09,21.02,1.24,25.91,9.17
								c0.34,0.55,1.2,0.05,0.86-0.5c-3.96-6.42-12.47-8.38-19.45-9.22c-9.51-1.14-21.75,2.38-29.53-4.75
								C321.8,50.24,321.09,50.94,321.57,51.38L321.57,51.38z"/>
						</g>
						<g>
							<path class="st4" d="M2.64,111.74c1.47,5.58,4.43,10.5,7.36,15.41c3.63,6.1,6.6,12.23,7.33,19.39
								c1.37,13.51-7.89,25.06-7.13,38.42c0.04,0.64,1.04,0.64,1,0c-0.39-6.82,1.98-13.19,4.13-19.55c2.09-6.19,3.5-12.3,3-18.87
								c-1.02-13.36-11.43-22.55-14.73-35.07C3.44,110.85,2.48,111.12,2.64,111.74L2.64,111.74z"/>
						</g>
						<g>
							<path class="st4" d="M4.02,131.82c3.77,4.94,6.48,10.58,6.79,16.87c0.29,5.97-2.46,11.62-2.36,17.6c0.01,0.64,1.01,0.65,1,0
								c-0.1-6.56,2.82-12.68,2.25-19.28c-0.5-5.77-3.36-11.16-6.81-15.69C4.5,130.81,3.63,131.3,4.02,131.82L4.02,131.82z"/>
						</g>
						<g>
							<path class="st4" d="M18.81,124.56c-1.9-5.03-4.08-11.48,0.4-15.84c2.48-2.41,5.4-1.45,8.16-0.33
								c1.91,0.78,3.83,0.69,5.72-0.1c0.59-0.24,0.33-1.21-0.27-0.96c-3.62,1.52-6.07-0.93-9.55-1.21
								c-2.24-0.18-4.35,1.31-5.72,2.91c-3.78,4.43-1.48,11.09,0.3,15.79C18.07,125.43,19.04,125.17,18.81,124.56L18.81,124.56z"/>
						</g>
						<g>
							<path class="st4" d="M20.9,159.61c0.81,12.49-5.49,24.44-3.22,36.95c2.03,11.19,10.67,19.86,13.28,30.9
								c0.15,0.63,1.11,0.36,0.96-0.27c-2.55-10.82-10.54-19.33-13.12-30.13c-2.98-12.47,3.9-24.9,3.09-37.45
								C21.86,158.97,20.86,158.96,20.9,159.61L20.9,159.61z"/>
						</g>
						<g>
							<path class="st4" d="M23.29,177.99c-4.06,10.24-1.75,20.39,4.25,29.26c0.36,0.53,1.23,0.03,0.86-0.5
								c-5.87-8.67-8.12-18.48-4.15-28.49C24.49,177.66,23.52,177.4,23.29,177.99L23.29,177.99z"/>
						</g>
						<g>
							<path class="st4" d="M13.08,212.78c8.18,5.44,12.08,14.63,14.01,23.94c2.14,10.31,2.84,21.28,2.77,31.79
								c-0.03,4.41-0.05,8.81,0.9,13.14c1,4.6,3.9,8.4,5.48,12.77c1.94,5.35-1.14,9-4.54,12.74c-2.45,2.69-4.5,6.12-3.3,9.83
								c0.2,0.61,1.16,0.35,0.96-0.27c-1.73-5.36,3.74-9.17,6.56-12.94c2.36-3.15,2.31-6.8,1.02-10.37
								c-1.61-4.44-4.38-8.18-5.4-12.88c-1.11-5.08-0.63-10.45-0.68-15.61c-0.09-10.32-1.02-21.14-3.41-31.2
								c-2.03-8.58-6.38-16.83-13.86-21.81C13.05,211.56,12.55,212.42,13.08,212.78L13.08,212.78z"/>
						</g>
						<g>
							<path class="st4" d="M15.27,229.37c4.59,8.13,7.23,17.1,7.78,26.42c0.56,9.34-2.03,18.56-1.15,27.89c0.06,0.64,1.06,0.64,1,0
								c-0.94-9.91,1.77-19.71,1.03-29.64c-0.66-8.85-3.45-17.47-7.8-25.18C15.81,228.3,14.95,228.8,15.27,229.37L15.27,229.37z"/>
						</g>
						<g>
							<path class="st4" d="M29.44,323.07c8.26,3.83,13.44,12.48,12.9,21.57c-0.04,0.64,0.96,0.64,1,0
								c0.56-9.41-4.84-18.47-13.39-22.43C29.36,321.93,28.85,322.79,29.44,323.07L29.44,323.07z"/>
						</g>
						<g>
							<path class="st4" d="M30.42,329.76c3.86,2.49,6.13,6.6,6.19,11.2c0.01,0.64,1.01,0.65,1,0c-0.06-4.95-2.52-9.38-6.68-12.06
								C30.38,328.55,29.88,329.41,30.42,329.76L30.42,329.76z"/>
						</g>
						<g>
							<path class="st4" d="M55.74,343.56c8.53-12.1,24.04-14.67,37.86-14.28c14.93,0.43,29.93,3.78,44.69-0.07
								c0.62-0.16,0.36-1.13-0.27-0.96c-16.23,4.23-32.85-0.2-49.28-0.01c-12.67,0.15-26.24,4-33.87,14.82
								C54.5,343.59,55.37,344.08,55.74,343.56L55.74,343.56z"/>
						</g>
						<g>
							<path class="st4" d="M71.28,341.39c4.84-3.43,10.35-5.47,16.25-6.01c5.47-0.5,10.92,1.16,16.33-0.15
								c0.63-0.15,0.36-1.12-0.27-0.96c-5.88,1.42-11.93-0.56-17.89,0.31c-5.43,0.79-10.46,2.78-14.94,5.95
								C70.26,340.9,70.75,341.77,71.28,341.39L71.28,341.39z"/>
						</g>
						<g>
							<path class="st4" d="M43.61,318.11c0.87,6.79,2.86,15.57,11.21,16.07c1.54,0.09,2.95-0.56,4.22-1.34
								c2.35-1.45,4.43-2.63,7.13-3.4c5.27-1.5,10.63-2.74,15.94-4.11c0.62-0.16,0.36-1.13-0.27-0.96
								c-4.14,1.07-8.29,2.13-12.43,3.2c-3.34,0.86-6.68,1.6-9.6,3.52c-1.62,1.07-2.98,2.02-5,2.09c-2.18,0.08-4.26-1.22-5.79-2.62
								c-3.31-3.03-3.88-8.26-4.41-12.44C44.53,317.48,43.53,317.47,43.61,318.11L43.61,318.11z"/>
						</g>
						<g>
							<path class="st4" d="M116.42,325.25c7.31-2.66,15.15-2.7,22.83-3.05c7.4-0.34,14.8-0.78,22.14-1.91
								c7.24-1.11,14.12-3.21,20.86-6.06c7.41-3.14,14.71-6.73,22.8-7.69c0.63-0.07,0.64-1.08,0-1c-6.79,0.8-13.05,3.37-19.27,6.08
								c-7.46,3.24-14.82,5.96-22.85,7.41c-8.11,1.46-16.38,1.84-24.6,2.22c-7.47,0.34-15.06,0.46-22.17,3.05
								C115.55,324.5,115.81,325.47,116.42,325.25L116.42,325.25z"/>
						</g>
						<g>
							<path class="st4" d="M138.69,329.78c19-7.85,40.43-4.23,59.58-11.54c9.31-3.56,17.17-10.17,26.89-12.76
								c9.89-2.64,20.77-0.06,28.83,6.08c0.51,0.39,1.01-0.48,0.5-0.86c-7.24-5.51-16.66-8.18-25.71-6.91
								c-10.3,1.44-18.58,7.84-27.75,12.2c-19.62,9.32-42.63,4.58-62.6,12.84C137.84,329.06,138.1,330.03,138.69,329.78
								L138.69,329.78z"/>
						</g>
						<g>
							<path class="st4" d="M216.48,316.61c7.92-4.42,17.46-9.33,26.4-4.65c0.57,0.3,1.08-0.56,0.5-0.86
								c-9.29-4.86-19.13,0.03-27.41,4.65C215.41,316.06,215.92,316.92,216.48,316.61L216.48,316.61z"/>
						</g>
						<g>
							<path class="st4" d="M261.23,319.99c5.85-0.83,12.47-1.56,17.12,2.9c3.08,2.95,4.25,7.28,8.12,9.48
								c0.56,0.32,1.07-0.54,0.5-0.86c-4.38-2.49-5.7-7.97-9.8-10.87c-4.63-3.27-10.99-2.35-16.21-1.61
								C260.33,319.12,260.6,320.08,261.23,319.99L261.23,319.99z"/>
						</g>
						<g>
							<path class="st4" d="M264.52,324.26c4.92-0.86,9.77,0.72,13.27,4.27c0.45,0.46,1.16-0.25,0.71-0.71
								c-3.77-3.82-8.97-5.45-14.25-4.53C263.62,323.4,263.89,324.37,264.52,324.26L264.52,324.26z"/>
						</g>
						<g>
							<path class="st4" d="M284.5,292.64c-4.24,5.87-5.16,13.4-2.96,20.24c2.63,8.19,11.02,11.5,14.91,18.75
								c0.3,0.57,1.17,0.06,0.86-0.5c-3.4-6.35-10.39-9.57-13.75-15.98c-3.62-6.91-2.71-15.76,1.8-22
								C285.74,292.63,284.87,292.13,284.5,292.64L284.5,292.64z"/>
						</g>
						<g>
							<path class="st4" d="M291.02,305.65c1.7-4.15,3.92-7.81,9.01-7.01c4.42,0.69,8.81,1.71,13.2,2.57
								c0.63,0.12,0.9-0.84,0.27-0.96c-2.86-0.56-5.72-1.12-8.58-1.68c-2.59-0.51-5.3-1.35-7.96-1.01c-3.75,0.47-5.65,4.8-6.89,7.83
								C289.81,305.98,290.78,306.24,291.02,305.65L291.02,305.65z"/>
						</g>
						<g>
							<path class="st4" d="M344.88,294.31c-1.81,0.23-3.62,0.32-5.44,0.3c-0.23,0.32-0.46,0.64-0.7,0.95
								c1.93,0.07,3.86,0,5.79-0.21C344.65,295.01,344.76,294.66,344.88,294.31z"/>
							<path class="st4" d="M326.22,292.98c-9.54-1.89-19.13-4.55-28.74-3.13c-0.64,0.09-0.36,1.06,0.27,0.96
								c9.37-1.38,18.7,1.12,28,3C325.9,293.54,326.06,293.26,326.22,292.98z"/>
						</g>
						<g>
							<path class="st4" d="M346.82,287.55c-1.05,0.11-2.1,0.19-3.16,0.22c-0.17,0.33-0.34,0.66-0.52,0.98
								c1.15-0.02,2.29-0.09,3.43-0.2C346.65,288.22,346.74,287.89,346.82,287.55z"/>
						</g>
						<g>
							<path class="st4" d="M369.28,66.55c-5.37,6.5-7.5,14.89-6.23,23.19c0.69,4.56,2.79,8.67,5.4,12.41
								c2.8,4.01,7.29,7.43,8.68,12.23c0.18,0.62,1.14,0.35,0.96-0.27c-1.07-3.7-3.88-6.36-6.29-9.24
								c-3.11-3.72-5.73-7.78-7.13-12.46c-2.57-8.58-0.35-18.32,5.31-25.17C370.4,66.77,369.69,66.05,369.28,66.55L369.28,66.55z"/>
						</g>
						<g>
							<path class="st4" d="M371.37,72.39c-6.29,9.17-2.76,20.51,4.08,28.24c0.43,0.48,1.13-0.23,0.71-0.71
								c-6.55-7.41-9.96-18.23-3.92-27.03C372.6,72.36,371.74,71.86,371.37,72.39L371.37,72.39z"/>
						</g>
						<g>
							<path class="st4" d="M358.54,71.59c-0.99,15.06,2.14,29.64,8.53,43.25c3.27,6.96,6.93,13.77,8.47,21.38
								c1.52,7.49,0.66,17.59-6.24,22.27c-0.53,0.36-0.03,1.23,0.5,0.86c5.39-3.66,7.26-10.5,7.36-16.7
								c0.12-7.65-2.89-14.92-6.08-21.72c-3.61-7.7-7.22-15.18-9.32-23.47c-2.14-8.43-2.81-17.2-2.24-25.87
								C359.58,70.95,358.58,70.95,358.54,71.59L358.54,71.59z"/>
						</g>
						<g>
							<path class="st4" d="M362.31,122.01c3.38,3.67,5.89,7.86,7.15,12.7c0.62,2.39,0.7,4.88,0.5,7.33
								c-0.11,1.34-0.44,2.65-0.81,3.94c-0.19,0.66-1.25,4.25-2.22,4.43c0.21,0.12,0.41,0.23,0.62,0.35c-0.2,0.12-0.4,0.24-0.6,0.36
								c0.54,0.35,1.04-0.51,0.5-0.86c-0.03-0.02-0.05-0.04-0.08-0.05c-0.18-0.11-0.47-0.09-0.61,0.08
								c-0.03,0.04-0.07,0.08-0.1,0.12c-0.11,0.13-0.19,0.31-0.13,0.49c0.02,0.04,0.03,0.09,0.05,0.13c0.1,0.27,0.33,0.4,0.62,0.35
								c1.62-0.29,2.46-3.77,2.92-5.12c0.99-2.94,1.11-6.15,0.78-9.21c-0.64-5.97-3.87-11.4-7.87-15.74
								C362.58,120.83,361.87,121.54,362.31,122.01L362.31,122.01z"/>
						</g>
						<g>
							<path class="st4" d="M381.73,151.19c-2.71,7.72-4.18,15.77-3.46,23.96c0.06,0.64,1.06,0.64,1,0
								c-0.71-8.1,0.74-16.05,3.42-23.69C382.91,150.85,381.94,150.59,381.73,151.19L381.73,151.19z"/>
						</g>
						<g>
							<path class="st4" d="M383.87,163.49c-1.39,4.39-1.51,8.87-0.55,13.36c0.13,0.63,1.1,0.36,0.96-0.27
								c-0.92-4.33-0.78-8.6,0.55-12.83C385.03,163.14,384.06,162.88,383.87,163.49L383.87,163.49z"/>
						</g>
					</g>
				</g>
				<g>
					<g>
						<g>
							<path class="st22" d="M388.59,179.37c0.31-0.33,0.49-0.78,0.4-1.33c-5.33-31.23-9.14-62.69-13.97-94
								c-1.19-7.69-2.46-15.36-3.8-23.03c-1.07-6.11-1.44-11.45-7.21-14.76c-4.86-2.78-12.89-0.97-18.15-0.62
								c-7.88,0.54-15.73,1.59-23.54,2.74c-63.69,9.39-127.73,16.44-191.5,25.36c-32.3,4.52-64.43,9.74-96.58,15.19
								C22.77,90.88,5.7,90.56,0.89,103.48c-2,5.37-0.16,10.81,0.82,16.19c1.51,8.32,2.19,16.71,3,25.13
								c6.08,62.76,12.7,125.48,25.01,187.37c0.72,3.64,0.94,6.78,3.7,9.42c2,1.92,4.58,2.13,7.03,3.05
								c3.99,1.5,6.08,1.81,10.25,1.11c5.82-0.98,11.64-1.96,17.47-2.93c20.91-3.48,41.82-6.88,62.74-10.27
								c41.21-6.69,82.41-13.39,123.51-20.7c1.9-0.34,1.09-3.23-0.8-2.89c-62.61,11.13-125.46,20.85-188.19,31.29
								c-7.6,1.27-16.86,4.53-24.19,1.5c-3.73-1.54-6.86-1.63-7.85-6.47c-0.93-4.53-1.81-9.06-2.68-13.6
								c-3.03-15.84-5.69-31.75-8.09-47.69c-4.76-31.59-8.32-63.34-11.56-95.12c-1.61-15.81-3.13-31.64-4.66-47.46
								c-0.62-6.44-1.83-12.71-3.01-19.07c-2.1-11.28,6.47-16.27,16.24-17.91c32.14-5.37,64.22-11,96.48-15.59
								c32.38-4.61,64.79-8.98,97.22-13.19c15.88-2.06,31.76-4.07,47.64-6.05c15.53-1.94,31.27-3.27,46.7-5.84
								c15.85-2.64,31.73-5.12,47.82-5.58c4.98-0.14,9.54,0.37,11.41,5.85c1.22,3.59,1.44,7.91,2.09,11.66
								c1.33,7.64,2.54,15.29,3.71,22.95c4.56,29.82,8.21,59.78,13.27,89.52C386.91,178.43,387.8,178.83,388.59,179.37z"/>
						</g>
						<g>
							<path class="st22" d="M253.32,311.92c3.56,7.86,11.53,13.11,18.97,16.93c8.61,4.41,18.44,5.8,27.84,3.5
								c1.88-0.46,1.08-3.35-0.8-2.89c-8.8,2.15-17.43,0.64-25.53-3.19c-7.06-3.34-14.6-8.57-17.9-15.85
								C255.12,308.64,252.53,310.17,253.32,311.92L253.32,311.92z"/>
						</g>
						<g>
							<path class="st22" d="M286.8,306.81c0.14,10.08,6.28,17.74,12.79,24.85c1.31,1.43,3.42-0.7,2.12-2.12
								c-5.95-6.51-11.78-13.48-11.91-22.73C289.77,304.88,286.77,304.87,286.8,306.81L286.8,306.81z"/>
						</g>
						<g>
							<path class="st22" d="M321.99,300.76c0.57-1.07,1.13-2.13,1.71-3.2c-12.04,2.36-24.1,4.59-36.2,6.65
								c-1.9,0.32-1.09,3.22,0.8,2.89c11.21-1.91,22.39-3.97,33.55-6.14C321.9,300.9,321.95,300.83,321.99,300.76z"/>
							<path class="st22" d="M345.25,293.14c-1.87,0.4-3.74,0.8-5.61,1.19c-0.72,1.01-1.48,2-2.28,2.96
								c-0.12,0.21-0.23,0.43-0.35,0.65c2.39-0.49,4.78-1,7.17-1.51C344.54,295.33,344.9,294.24,345.25,293.14z"/>
						</g>
					</g>
					<g>
						<path class="st22" d="M372.3,174.78c-5.48-31.53-11.14-63.02-15.85-94.68c-0.83-5.56-1.46-12.42-5.04-17.03
							c-2.67-3.45-12.47-1.03-15.77-0.77c-15.5,1.22-31.03,2.99-46.42,5.19C224.9,76.67,160.83,87.49,96.72,98
							c-15.91,2.61-31.83,5.2-47.76,7.74c-7.65,1.22-15.3,2.43-22.96,3.62c-4.65,0.73-6.8,5.41-7.74,9.64
							c-1.08,4.86-0.25,10.1,0.02,15c0.41,7.56,1.38,15.06,2.29,22.59c1.89,15.46,3.58,30.85,6.03,46.24
							c2.53,15.88,5.36,31.72,8,47.58c1.27,7.65,2.49,15.31,3.63,22.98c1.27,8.52,1.85,16.81,2.33,25.39
							c0.47,8.56,1.97,19.77,7.44,26.69c1.57,1.99,5.9,4.93,8.61,4.12c8.12-2.42,16.39-3.82,24.81-4.73
							c14.17-1.53,28.21-3.09,42.32-5.21c14.68-2.21,29.35-4.54,44.01-6.91c14.73-2.38,29.46-4.82,44.18-7.23
							c15.22-2.5,30.67-5.36,46-7.05c1.27-0.14,1.28-2.14,0-2c-14.88,1.64-29.81,4.39-44.59,6.81c-16.01,2.62-32.02,5.27-48.03,7.86
							c-15.94,2.58-31.9,5.09-47.88,7.47c-15.66,2.33-31.51,3.23-47.12,5.76c-6.54,1.06-14.57,5.5-20.18,0.47
							c-3.98-3.57-4.93-10.1-5.93-15.07c-1.29-6.45-1.83-12.76-1.86-19.34c-0.03-7.71-1.89-15.7-3.05-23.31
							c-4.94-32.38-12.39-64.68-15.28-97.33c-1.26-14.22-3.39-28.27-4.15-42.54c-0.16-3.01-0.06-5.97,0.59-8.92
							c1.01-4.52,3.59-6.62,7.98-7.31c8.29-1.29,16.58-2.61,24.87-3.93c31.86-5.09,63.69-10.38,95.53-15.62
							c32.03-5.27,64.08-10.47,96.16-15.39c32.66-5.01,65.39-10.14,98.39-12.31c1.76-0.12,3.31-0.17,5.07,0.09
							c2.33,0.36,3.61,5.5,4.33,7.36c1.79,4.62,1.85,10.32,2.59,15.21c1.53,10.14,3.18,20.26,4.86,30.38
							c3.25,19.53,6.73,39.02,10.12,58.52C370.59,176.58,372.52,176.04,372.3,174.78L372.3,174.78z"/>
					</g>
					<g>
						<path class="st22" d="M257.44,297.85c4.58,8.83,11.59,15.89,20.39,20.53c1.14,0.6,2.15-1.13,1.01-1.73
							c-8.52-4.49-15.24-11.26-19.67-19.81C258.58,295.69,256.85,296.71,257.44,297.85L257.44,297.85z"/>
					</g>
					<g>
						<path class="st22" d="M276.79,294.08c-0.95,7.69-0.72,15.3,0.64,22.93c0.23,1.27,2.15,0.73,1.93-0.53
							c-1.33-7.46-1.5-14.88-0.57-22.39C278.95,292.8,276.95,292.81,276.79,294.08L276.79,294.08z"/>
					</g>
					<g>
						<path class="st22" d="M332.34,282.56c-18.19,3.43-36.38,6.85-54.57,10.28c-1.27,0.24-0.73,2.17,0.53,1.93
							c17.55-3.3,35.09-6.61,52.64-9.91C331.41,284.08,331.87,283.32,332.34,282.56z"/>
					</g>
				</g>
			</g>
			<g>
				<g>
					<path class="st22" d="M346.87,127.8c-6.66-9.23-16.55-14.82-27.62-9.74c-10.69,4.9-13.95,18.11-9.21,28.21
						c4.89,10.42,17.63,13.89,27.69,9.61C348.72,151.2,353.27,137.7,346.87,127.8c-0.7-1.08-2.43-0.08-1.73,1.01
						c5.85,9.05,1.7,19.45-7.17,24.71c-9.02,5.36-20.07,1.25-25.52-7.04c-5.89-8.96-1.91-20.65,6.62-26.06
						c9.79-6.21,20.13,0.16,26.07,8.38C345.89,129.84,347.63,128.85,346.87,127.8z"/>
				</g>
				<g>
					<path class="st22" d="M320.42,125.49c-0.39,1.52-0.78,3.03-1.17,4.55c-0.32,1.25,1.61,1.78,1.93,0.53
						c0.39-1.52,0.78-3.03,1.17-4.55C322.67,124.77,320.74,124.24,320.42,125.49L320.42,125.49z"/>
				</g>
				<g>
					<path class="st22" d="M337.61,129.7c-0.24,1.24-0.48,2.47-0.72,3.71c-0.24,1.26,1.68,1.8,1.93,0.53
						c0.24-1.24,0.48-2.47,0.72-3.71C339.78,128.97,337.85,128.43,337.61,129.7L337.61,129.7z"/>
				</g>
				<g>
					<path class="st22" d="M323.07,132.24c-0.59,3.52,1.55,6.93,5.11,7.66c3.69,0.75,6.88-2.48,7.3-5.9c0.16-1.28-1.85-1.26-2,0
						c-0.31,2.55-2.78,4.38-5.3,3.86c-2.2-0.45-3.53-3.01-3.18-5.09C325.21,131.52,323.29,130.97,323.07,132.24L323.07,132.24z"/>
				</g>
			</g>
			<g>
				<path class="st22" d="M353.95,47.9c7.35-7.03,9.69-17.5,4.48-26.51c-5.22-9.03-15.6-9.33-23.83-4.9
					c-6.94,3.74-11.75-2.97-18.5-1.58c-5.03,1.04-8.57,4.63-11.1,8.96c-5.04,8.66,0.99,22.05,8.82,26.94
					c1.1,0.68,2.1-1.05,1.01-1.73c-7.86-4.91-12.17-17.2-7.39-25.42c3.25-5.59,8.63-7.79,14.76-5.8c2.94,0.95,6.22,2.84,9.44,1.95
					c4.03-1.12,7.24-3.85,11.49-4.42c4.64-0.62,9,1.81,12.1,5.03c7.29,7.58,4.12,19.54-2.7,26.05
					C351.6,47.38,353.02,48.79,353.95,47.9L353.95,47.9z"/>
			</g>
			<g>
				<path class="st22" d="M335.22,3.23c-4.46,7.32-5.6,16.12-3.14,24.34c0.18,0.62,1.15,0.35,0.96-0.27
					c-2.39-7.97-1.29-16.46,3.04-23.57C336.42,3.18,335.55,2.68,335.22,3.23L335.22,3.23z"/>
			</g>
			<g>
				<path class="st22" d="M323.7,26.82c5.18,2.46,12.49,3.74,15.82-2.24c0.31-0.56-0.55-1.07-0.86-0.5
					c-3.05,5.49-9.77,4.1-14.45,1.88C323.62,25.68,323.11,26.54,323.7,26.82L323.7,26.82z"/>
			</g>
			<g>
				<path class="st22" d="M324.78,0.53c-1.76,2.5-0.96,6.02,0.21,8.61c1.24,2.76,4.07,4.45,7.01,4.57c0.65,0.03,0.64-0.97,0-1
					c-5.02-0.2-9.52-7.18-6.36-11.67C326.02,0.51,325.15,0.01,324.78,0.53L324.78,0.53z"/>
			</g>
			<g>
				<path class="st22" d="M325.31,0.83c3.74,3.11,5.81,7.48,5.81,12.34c0,0.64,1,0.64,1,0c0-5.11-2.17-9.78-6.1-13.05
					C325.52-0.29,324.81,0.42,325.31,0.83L325.31,0.83z"/>
			</g>
			<g>
				<path class="st22" d="M332.83,13.04c2.31-3.74,6.17-4.42,10.08-2.92c0.6,0.23,0.86-0.74,0.27-0.96
					c-4.36-1.67-8.68-0.71-11.21,3.38C331.63,13.08,332.5,13.58,332.83,13.04L332.83,13.04z"/>
			</g>
			<g>
				<path class="st22" d="M331.64,13.6c4,1.92,9.04-0.46,11.77-3.5c0.43-0.48-0.28-1.19-0.71-0.71c-2.39,2.66-6.96,5.07-10.56,3.34
					C331.57,12.46,331.06,13.32,331.64,13.6L331.64,13.6z"/>
			</g>
			<g>
				<g>
					<path class="st22" d="M364.55,178.98c-11.05-0.36-24.09,5.01-25.49,17.47c-0.5,4.42-0.46,8.8-1.29,13.19
						c-0.79,4.18-1.74,8.2-1.6,12.49c0.15,4.69,2.16,8.98,5.26,12.42c6.51,7.24,17.87,8.92,27.06,8.55
						c11.16-0.46,21.58-5.51,24.21-17.12c0.28-1.26-1.64-1.79-1.93-0.53c-4.42,19.52-34.56,19.81-47.2,8.42
						c-9.25-8.33-3.57-20.48-2.93-30.89c0.42-6.81,1.15-12.23,6.51-17c4.65-4.14,11.42-5.19,17.4-4.99
						C365.84,181.03,365.83,179.03,364.55,178.98L364.55,178.98z"/>
				</g>
				<g>
					<path class="st22" d="M393.16,213.21c1.46-2.63,3.82-4.04,6.79-4.19c4.99-0.26,5.86,4.7,4.2,8.32
						c-2.2,4.78-7.75,7.13-12.62,7.89c-1.27,0.2-0.73,2.13,0.53,1.93c6.46-1.01,16.36-6.33,15.08-14.39
						c-1.33-8.37-12.45-6.45-15.7-0.57C390.8,213.33,392.53,214.34,393.16,213.21L393.16,213.21z"/>
				</g>
				<g>
					<path class="st22" d="M400.3,210.16c-3.06,1.31-5.67,3.8-6.84,6.96c-0.47,1.28-1.09,2.95-0.62,4.31
						c0.45,1.3,2.57,0.36,3.37,0.63c0.61,0.21,0.87-0.76,0.27-0.96c-0.66-0.23-1.13-0.16-1.81-0.01c-2.12,0.48,0.04-4.3,0.26-4.74
						c1.22-2.45,3.41-4.26,5.89-5.32C401.39,210.77,400.88,209.91,400.3,210.16L400.3,210.16z"/>
				</g>
				<g>
					<path class="st22" d="M395.67,214.26c2.14,2.15-0.79,4.63-2.47,5.77c-0.53,0.36-0.03,1.23,0.5,0.86
						c2.25-1.54,5.35-4.66,2.68-7.34C395.92,213.09,395.21,213.8,395.67,214.26L395.67,214.26z"/>
				</g>
				<g>
					<path class="st22" d="M343.38,207.52c0,1.06,0,2.13,0,3.19c0,1.93,3,1.93,3,0c0-1.06,0-2.13,0-3.19
						C346.38,205.59,343.38,205.59,343.38,207.52L343.38,207.52z"/>
				</g>
				<g>
					<path class="st22" d="M369.36,207.53c-0.11,1.25-0.23,2.51-0.34,3.76c-0.07,0.82,0.74,1.5,1.5,1.5c0.87,0,1.43-0.69,1.5-1.5
						c0.11-1.25,0.23-2.51,0.34-3.76c0.07-0.82-0.74-1.5-1.5-1.5C369.98,206.03,369.43,206.71,369.36,207.53L369.36,207.53z"/>
				</g>
				<g>
					<path class="st22" d="M342.4,203.09c1.24-1.68,3.16-2.69,5.24-2.81c1.28-0.07,1.29-2.07,0-2c-2.84,0.16-5.28,1.52-6.97,3.8
						C339.9,203.12,341.64,204.11,342.4,203.09L342.4,203.09z"/>
				</g>
				<g>
					<path class="st22" d="M368.8,198.73c3.01,0.25,5.51,2.11,6.77,4.82c0.54,1.17,2.27,0.15,1.73-1.01
						c-1.57-3.37-4.82-5.51-8.5-5.81C367.52,196.62,367.53,198.63,368.8,198.73L368.8,198.73z"/>
				</g>
				<g>
					<path class="st22" d="M358.42,206.54c-2.17-1.54-4.95-0.81-6.35,1.35c-1.5,2.31-0.21,5.35,2.08,6.52
						c1.15,0.58,2.16-1.14,1.01-1.73c-1.32-0.67-1.98-1.91-1.56-3.37c0.5-1.72,2.53-1.96,3.81-1.05
						C358.46,209.02,359.46,207.28,358.42,206.54L358.42,206.54z"/>
				</g>
				<g>
					<path class="st22" d="M354.02,217.39c4.06,0.14,7.85-1.5,10.51-4.58c0.42-0.48-0.28-1.2-0.71-0.71
						c-2.5,2.89-5.98,4.41-9.8,4.28C353.37,216.37,353.37,217.37,354.02,217.39L354.02,217.39z"/>
				</g>
				<g>
					<path class="st22" d="M353.47,217.08c1.05,4.12,4.41,8.38,9.14,6.62c4.48-1.66,3.87-8.13,2.02-11.4
						c-0.32-0.56-1.18-0.06-0.86,0.5c1.71,3.01,2.07,7.36-1.01,9.68c-3.96,2.98-7.53-2.52-8.34-5.67
						C354.28,216.19,353.32,216.46,353.47,217.08L353.47,217.08z"/>
				</g>
				<g>
					<path class="st22" d="M357.19,221.73c2.07-2.19,4.83-3.28,7.83-3.11c0.64,0.04,0.64-0.96,0-1c-3.25-0.18-6.3,1.04-8.54,3.41
						C356.04,221.49,356.75,222.2,357.19,221.73L357.19,221.73z"/>
				</g>
				<g>
					<path class="st22" d="M400.84,207.98c-0.09-10.38,0.58-20.57-8.48-27.49c-8.3-6.34-20.74-6.7-30.73-7.08
						c-13.41-0.51-33.35-0.24-41.82,12.17c-4.92,7.21-2.37,17.33,3.68,22.9c0.91,0.84,2.14,1.57,3.07,2.35
						c3.06,2.56-1.3,4.65-2.59,5.42c-2.22,1.32-4.37,2.78-6.44,4.31c-3.61,2.67-6.6,5.94-7.99,10.26
						c-1.42,4.41,0.62,9.11,3.13,12.65c1.27,1.8,2.94,2.97,4.73,4.18c3.83,2.6-2.57,6.45-4.05,8.22
						c-6.47,7.72-5.83,18.95,1.06,26.05c2.33,2.4,5.48,3.73,8.69,4.4c1.26,0.26,1.79-1.67,0.53-1.93
						c-16.21-3.36-15.73-23.3-4.06-31.61c1.99-1.42,2.64-2.61,1.31-4.77c-0.74-1.2-2.54-2.14-3.65-2.89
						c-3.79-2.57-6.02-7.13-6.1-11.64c-0.09-5.61,5.46-9.87,9.54-12.73c2.83-1.99,7.22-3.43,8.67-6.78
						c0.94-2.17-0.96-4.41-2.57-5.56c-5.72-4.07-8.42-10.29-7.13-17.21c2.81-15.01,25.96-15.85,37.62-15.88
						c8.83-0.02,17.94,0.56,26.41,3.14c6.75,2.06,12.15,6.35,14.21,13.25c1.54,5.16,0.92,10.95,0.97,16.26
						C398.86,209.26,400.86,209.27,400.84,207.98L400.84,207.98z"/>
				</g>
				<g>
					<path class="st22" d="M363.83,179.66c-1.73,4-2.32,8.8-0.11,12.79c1.19,2.15,2.58,3.77,4.53,5.28
						c0.69,0.53,4.67,1.93,4.69,2.89c0.3,9.84,10.5,15.37,19.27,13.23c1.25-0.31,0.72-2.23-0.53-1.93
						c-8.72,2.13-16.51-3.79-16.78-12.77c-0.01-0.44-0.29-0.85-0.73-0.96c-7.95-2.05-11.92-9.91-8.61-17.53
						C366.06,179.5,364.34,178.48,363.83,179.66L363.83,179.66z"/>
				</g>
				<g>
					<path class="st22" d="M401.17,222.18c1.48,5.39,6.57,7.4,11.2,9.64c10.07,4.88,9.44,14.66,3.69,22.8
						c-0.38,0.54,0.02,1.3,0.6,1.47c13.7,4.04,13.13,20.85,7.21,31.16c-0.64,1.12,1.09,2.13,1.73,1.01
						c6.6-11.51,6.56-29.68-8.41-34.1c0.2,0.49,0.4,0.98,0.6,1.47c4.18-5.92,6.55-13.08,2.67-19.75
						c-3.96-6.8-15.18-6.31-17.36-14.23C402.76,220.41,400.83,220.93,401.17,222.18L401.17,222.18z"/>
				</g>
				<g>
					<path class="st22" d="M358.4,242.22c1.58,6.82-4.45,9.56-9.4,12.49c-5.22,3.09-7.32,6.84-10.16,12.16
						c-8.3,15.5-15.87,31.37-25.63,46.03c-0.72,1.08,1.02,2.08,1.73,1.01c10.82-16.25,19.03-33.99,28.37-51.09
						c4.55-8.34,19.8-9.15,17.03-21.13C360.03,240.44,358.11,240.97,358.4,242.22L358.4,242.22z"/>
				</g>
				<g>
					<path class="st22" d="M380.89,256.44c9.26,5.63,13.94,13.94,15.16,24.59c1.25,10.89,0.14,22.37-6.57,31.38
						c-0.77,1.04,0.97,2.03,1.73,1.01c7.21-9.68,8.33-22.47,6.64-34.13c-1.55-10.7-6.67-18.94-15.95-24.58
						C380.79,254.05,379.79,255.78,380.89,256.44L380.89,256.44z"/>
				</g>
				<g>
					<path class="st22" d="M370.86,242.39c-0.9,3.83,0.85,7.31,3.58,9.94c0.93,0.89,2.34-0.52,1.41-1.41
						c-2.19-2.11-3.8-4.86-3.06-7.99C373.08,241.67,371.15,241.13,370.86,242.39L370.86,242.39z"/>
				</g>
				<g>
					<path class="st22" d="M347.91,264.28c1.27,13.49-3.28,26.64-6.65,39.51c-3.89,14.88-6.91,29.98-8.98,45.22
						c-0.17,1.26,1.76,1.8,1.93,0.53c2.07-15.25,5.15-30.31,8.98-45.22c3.36-13.07,8.01-26.35,6.72-40.04
						C349.79,263.01,347.79,263,347.91,264.28L347.91,264.28z"/>
				</g>
				<g>
					<path class="st22" d="M380.2,265.29c-1.82,28.31,14.28,53.4,17.46,81c0.15,1.27,2.15,1.28,2,0
						c-3.18-27.57-19.28-52.75-17.46-81C382.29,264,380.29,264.01,380.2,265.29L380.2,265.29z"/>
				</g>
				<g>
					<path class="st22" d="M333.42,350.62c11.4,3.93,23.21,5.67,35.25,5.27c10.54-0.35,22.63-1.99,30.92-9.04
						c0.98-0.84-0.44-2.24-1.41-1.41c-8.33,7.09-20.79,8.16-31.28,8.51c-11.2,0.37-22.38-1.62-32.94-5.26
						C332.73,348.27,332.21,350.2,333.42,350.62L333.42,350.62z"/>
				</g>
				<g>
					<path class="st22" d="M321.32,318.31c11.26-12.51,22.48-25.33,28.34-41.38c0.44-1.21-1.49-1.73-1.93-0.53
						c-5.73,15.69-16.81,28.25-27.82,40.49C319.05,317.85,320.46,319.27,321.32,318.31L321.32,318.31z"/>
				</g>
				<g>
					<path class="st22" d="M313.03,313.92c1.09,2.84,3.73,4.75,6.8,4.73c1.29-0.01,1.29-2.01,0-2c-2.12,0.01-4.1-1.25-4.87-3.26
						C314.51,312.2,312.57,312.71,313.03,313.92L313.03,313.92z"/>
				</g>
				<g>
					<path class="st22" d="M357.24,249.95c0.03,4.48,2.77,9.96,7.86,9.9c4.48-0.05,8.55-5.62,8.69-9.69c0.02-0.65-0.98-0.64-1,0
						c-0.13,3.94-3.4,7.32-7,8.55c-4.79,1.64-7.52-5.26-7.54-8.77C358.24,249.3,357.24,249.3,357.24,249.95L357.24,249.95z"/>
				</g>
				<g>
					<path class="st22" d="M356.64,250.06c-1.87,3.58-4.37,11-0.84,14.42c4.06,3.93,7.6-0.94,8.81-4.73
						c0.2-0.62-0.77-0.88-0.96-0.27c-0.51,1.61-1.07,3.08-2.23,4.34c-2.48,2.7-5.35,0.13-6.03-2.46c-0.91-3.47,0.52-7.75,2.12-10.79
						C357.8,250,356.94,249.49,356.64,250.06L356.64,250.06z"/>
				</g>
				<g>
					<path class="st22" d="M363.88,259.69c-1.11,3.32,0.72,7.06,4.14,7.98c0.62,0.17,0.89-0.8,0.27-0.96
						c-2.93-0.79-4.39-3.94-3.45-6.75C365.05,259.34,364.08,259.08,363.88,259.69L363.88,259.69z"/>
				</g>
				<g>
					<path class="st22" d="M343.7,352.9c-6.5,19.22-8.69,39.79-6.48,59.96c0.14,1.27,2.14,1.28,2,0
						c-2.2-20.01-0.04-40.35,6.41-59.43C346.04,352.21,344.11,351.69,343.7,352.9L343.7,352.9z"/>
				</g>
				<g>
					<path class="st22" d="M356.59,355.66c-4.71,19.61-7.93,39.51-9.66,59.6c-0.11,1.29,1.89,1.27,2,0
						c1.71-19.92,4.92-39.63,9.59-59.07C358.82,354.94,356.89,354.41,356.59,355.66L356.59,355.66z"/>
				</g>
				<g>
					<path class="st22" d="M372.99,355.79c3.72,9.45,7.11,19.01,10.19,28.68c2.94,9.25,4.44,18.88,7.55,28.09
						c0.41,1.21,2.34,0.69,1.93-0.53c-3.11-9.2-4.72-18.81-7.55-28.09c-2.96-9.7-6.48-19.25-10.19-28.68
						C374.45,354.07,372.52,354.59,372.99,355.79L372.99,355.79z"/>
				</g>
				<g>
					<path class="st22" d="M386.66,352.92c6.95,16.6,11.09,34.08,12.26,52.04c0.08,1.28,2.08,1.29,2,0
						c-1.18-18.14-5.31-35.81-12.33-52.57C388.09,351.22,386.16,351.73,386.66,352.92L386.66,352.92z"/>
				</g>
				<g>
					<path class="st22" d="M392.02,413.52c6.69-0.42,13.33-1.16,19.95-2.2c1.27-0.2,0.73-2.13-0.53-1.93
						c-6.44,1.01-12.91,1.72-19.42,2.13C390.74,411.6,390.73,413.6,392.02,413.52L392.02,413.52z"/>
				</g>
				<g>
					<path class="st22" d="M400.03,407.16c4.21-1.14,8.46,0.2,11.3,3.49c0.84,0.98,2.25-0.44,1.41-1.41
						c-3.3-3.81-8.39-5.33-13.25-4.01C398.26,405.57,398.79,407.5,400.03,407.16L400.03,407.16z"/>
				</g>
				<g>
					<path class="st22" d="M338.03,411.92c-5.03,0.16-9.34,3.36-11.01,8.1c-0.43,1.22,1.5,1.74,1.93,0.53
						c1.37-3.88,4.98-6.49,9.08-6.63C339.31,413.87,339.32,411.87,338.03,411.92L338.03,411.92z"/>
				</g>
				<g>
					<path class="st22" d="M328.33,421.74c6.56-1.46,13.08-3.14,19.64-4.6c1.26-0.28,0.72-2.21-0.53-1.93
						c-6.56,1.46-13.08,3.14-19.64,4.6C326.53,420.09,327.07,422.01,328.33,421.74L328.33,421.74z"/>
				</g>
				<g>
					<path class="st22" d="M333.19,414.86c1.71,0.2,3.14,0.8,4.52,1.82c0.19,0.14,0.44,0.05,0.61-0.08c2.58-2.1,5.63-3.02,8.94-2.77
						c0.64,0.05,0.64-0.95,0-1c-2.74-0.21-5.25,0.36-7.66,1.64c-1.67,0.89-1.48,1.07-3.28,0.18c-0.98-0.49-2.05-0.67-3.13-0.8
						C332.55,413.78,332.56,414.78,333.19,414.86L333.19,414.86z"/>
				</g>
				<g>
					<path class="st22" d="M406.53,405.79c-1.04,0.05-2.08,0.17-3.05,0.59c-0.54,0.23-3.27,2.34-3.66,2.14
						c-2.9-1.47-6.07-2.18-9.2-1.09c-0.61,0.21-0.35,1.18,0.27,0.96c3.25-1.13,6.24-0.12,9.18,1.37c0.19,0.1,0.46,0.1,0.61-0.08
						c1.55-1.81,3.48-2.79,5.87-2.89C407.18,406.76,407.18,405.76,406.53,405.79L406.53,405.79z"/>
				</g>
				<g>
					<path class="st22" d="M387.24,395.06c3.74-0.74,7.48-1.52,11.21-2.34c0.63-0.14,0.36-1.1-0.27-0.96
						c-3.73,0.82-7.46,1.61-11.21,2.34C386.34,394.22,386.61,395.18,387.24,395.06L387.24,395.06z"/>
				</g>
				<g>
					<path class="st22" d="M386.09,391.94c3.72-1.1,7.49-1.94,11.33-2.53c0.64-0.1,0.36-1.06-0.27-0.96
						c-3.84,0.58-7.61,1.42-11.33,2.52C385.21,391.16,385.47,392.13,386.09,391.94L386.09,391.94z"/>
				</g>
				<g>
					<path class="st22" d="M337.2,400.59c3.72,0.37,7.69,1.19,11.43,0.97c0.64-0.04,0.64-1.04,0-1c-3.74,0.23-7.71-0.6-11.43-0.97
						C336.56,399.52,336.56,400.52,337.2,400.59L337.2,400.59z"/>
				</g>
				<g>
					<path class="st22" d="M336.96,397.51c4.24,0.08,8.42,0.58,12.56,1.51c0.63,0.14,0.9-0.82,0.27-0.96
						c-4.23-0.94-8.49-1.46-12.82-1.54C336.32,396.5,336.32,397.5,336.96,397.51L336.96,397.51z"/>
				</g>
				<g>
					<path class="st22" d="M336.87,397.12c-1.26-0.87-2.37-1.86-3.4-2.99c-0.5-0.54-0.93-1.14-1.35-1.74
						c-0.22-0.32-0.43-0.66-0.62-1c-0.92-1.29-0.62-1.84,0.88-1.66c2.06,1.96,3.32,5.11,4.04,7.79c0.17,0.62,1.13,0.36,0.96-0.27
						c-0.67-2.5-1.75-4.8-3.24-6.91c-0.72-1.01-1.93-2.73-3.39-1.88c-1.62,0.95-0.15,3.42,0.51,4.43c1.33,2.03,3.12,3.71,5.1,5.09
						C336.9,398.36,337.4,397.49,336.87,397.12L336.87,397.12z"/>
				</g>
				<g>
					<path class="st22" d="M337.1,396.94c-2.41-0.7-10.44-2.45-10.24,2.29c0.17,4.05,10.68-1.19,11.94-1.68
						c0.59-0.24,0.33-1.2-0.27-0.96c-2.58,1.02-5.16,2.27-7.84,2.98c-1.4,0.55-2.01-0.08-1.84-1.9c0.94-0.59,2.13-0.67,3.2-0.7
						c1.61-0.04,3.24,0.51,4.77,0.95C337.45,398.08,337.72,397.12,337.1,396.94L337.1,396.94z"/>
				</g>
				<g>
					<path class="st22" d="M398.51,389.67c0.16-2.92,1.19-5.64,3.13-7.84c0.25-0.22,0.51-0.44,0.76-0.66
						c1.03,0.32,1.19,0.87,0.47,1.66c-0.33,0.65-0.86,1.27-1.31,1.83c-0.97,1.19-2.15,2.2-3.4,3.07c-0.53,0.37-0.03,1.23,0.5,0.86
						c2.4-1.67,6.57-5.08,5.51-8.44c-0.06-0.2-0.26-0.38-0.48-0.37c-4.21,0.26-6,6.47-6.18,9.89
						C397.47,390.32,398.47,390.32,398.51,389.67L398.51,389.67z"/>
				</g>
				<g>
					<path class="st22" d="M398.55,389c1.52-0.6,3.03-0.96,4.66-1.1c0.71-0.06,1.41-0.02,2.12,0.03c0.42,0.06,0.84,0.11,1.27,0.17
						c0.61,0,0.86,0.37,0.75,1.13c-3.15,1-6.78-0.02-9.44-1.77c-0.54-0.36-1.04,0.51-0.5,0.86c2.04,1.35,4.23,2.05,6.67,2.23
						c1.29,0.09,4.28,0.2,4.73-1.43c1.06-3.84-9.19-1.61-10.52-1.08C397.69,388.27,397.95,389.24,398.55,389L398.55,389z"/>
				</g>
				<g>
					<path class="st22" d="M380.87,273.88c6.54,5.1,6.13,16.39,4.41,23.63c-0.3,1.25,1.63,1.79,1.93,0.53
						c1.87-7.86,2.19-20.02-4.92-25.57C381.28,271.69,379.86,273.09,380.87,273.88L380.87,273.88z"/>
				</g>
				<g>
					<path class="st22" d="M374.43,252.09c-8.22,11.23-10.2,25.13-7.79,38.62c1.19,6.68,3.73,13.4,7.79,18.87
						c4.08,5.49,10.54,7.91,16.99,9.28c1.26,0.27,1.79-1.66,0.53-1.93c-7.39-1.58-13.35-4.46-17.6-10.94
						c-3.34-5.09-5-11.4-6.06-17.33c-2.2-12.35,0.44-25.42,7.86-35.56C376.92,252.06,375.19,251.06,374.43,252.09L374.43,252.09z"/>
				</g>
				<g>
					<path class="st22" d="M379.98,256.36c-8.32,15.9-5.66,34.68,6.81,47.58c0.9,0.93,2.31-0.49,1.41-1.41
						c-11.83-12.24-14.4-30.07-6.5-45.16C382.3,256.23,380.58,255.22,379.98,256.36L379.98,256.36z"/>
				</g>
				<g>
					<path class="st22" d="M375.96,252.78c4.97-2.23,10.22-2.59,15.59-2.59c5.99-0.01,10.67,3.31,15.1,6.94
						c6.95,5.69,12.08,13.4,14.66,21.98c2.87,9.54,2.68,22.77-2.41,31.51c-5.14,8.82-16.12,12.05-25.5,13.61
						c-1.27,0.21-0.73,2.14,0.53,1.93c10.46-1.74,20.55-5.42,26.69-14.53c6.24-9.24,5.22-24.36,2.17-34.49
						c-2.86-9.53-9.58-17.49-17.33-23.47c-8.78-6.78-20.52-7.09-30.53-2.6C373.77,251.58,374.79,253.3,375.96,252.78L375.96,252.78z
						"/>
				</g>
				<g>
					<path class="st22" d="M394.68,268.05c5.93-1.45,12.08-3.14,15.99-8.16c0.39-0.5-0.31-1.22-0.71-0.71
						c-3.82,4.9-9.78,6.5-15.55,7.91C393.79,267.24,394.06,268.2,394.68,268.05L394.68,268.05z"/>
				</g>
				<g>
					<path class="st22" d="M395.15,272.09c6.98-1.12,14.4-2.59,18.74-8.73c0.37-0.53-0.49-1.03-0.86-0.5
						c-4.17,5.89-11.48,7.2-18.15,8.27C394.25,271.23,394.52,272.19,395.15,272.09L395.15,272.09z"/>
				</g>
				<g>
					<path class="st22" d="M393.87,249.68c10.07-0.99,24.18,6.9,22.91,18.43c-0.07,0.64,0.93,0.63,1,0
						c1.33-12.06-13.32-20.48-23.91-19.43C393.23,248.74,393.23,249.74,393.87,249.68L393.87,249.68z"/>
				</g>
				<g>
					<path class="st22" d="M417.26,267.02c1.4-1.29,2.89-2.16,4.7-2.77c0.87-0.29,1.79-0.41,2.7-0.48c0.24-0.01,0.48-0.01,0.72-0.02
						c1.13-0.16,1.79,0.52,1.96,2.01c-3.05,2.04-7.26,1.97-10.58,0.79c-0.61-0.22-0.87,0.75-0.27,0.96
						c2.79,0.99,5.59,1.08,8.45,0.35c1.08-0.28,4.64-1.35,4.05-3.12c-0.73-2.19-3.07-2.08-5.05-1.91c-2.79,0.24-5.35,1.61-7.38,3.48
						C416.08,266.75,416.79,267.45,417.26,267.02L417.26,267.02z"/>
				</g>
				<g>
					<path class="st22" d="M396.45,299.28c10.16-1.65,20.85-3.62,28.37-11.27c0.45-0.46-0.25-1.17-0.71-0.71
						c-7.39,7.52-17.95,9.39-27.93,11.01C395.55,298.42,395.82,299.38,396.45,299.28L396.45,299.28z"/>
				</g>
				<g>
					<path class="st22" d="M396.11,302.31c5.72,0.21,11.3-0.69,16.78-2.31c4.35-1.29,8.75-3.03,11.75-6.59
						c0.41-0.49-0.29-1.2-0.71-0.71c-3.12,3.7-7.7,5.27-12.2,6.6c-5.07,1.5-10.33,2.21-15.61,2.01
						C395.47,301.29,395.47,302.29,396.11,302.31L396.11,302.31z"/>
				</g>
				<g>
					<path class="st22" d="M313.49,314.46c-2.05,0.85-4.09,1.71-6.14,2.56c-0.73,0.31-3.18,0.8-3.44,1.78
						c-0.64,2.33,3.99,2.1,5.16,1.9c-0.13-0.3-0.26-0.61-0.39-0.91c-2,1.53-3.35,3.37-4.17,5.75c-0.09,0.27,0.1,0.53,0.35,0.62
						c2.98,0.98,4.98-1.2,6.61-3.42c-0.29-0.17-0.58-0.34-0.86-0.5c-0.52,1.21-3.8,7.96-1.13,8.61c3.07,0.75,4.75-4.11,5.42-6.34
						c-0.33-0.04-0.65-0.09-0.98-0.13c-0.2,2.44-0.13,4.78,2.02,6.3c0.13,0.09,0.37,0.1,0.5,0c2.33-1.74,2.19-4.34,1.52-6.94
						c-0.32,0.09-0.64,0.18-0.96,0.27c0.73,1.83,2.52,2.13,4.32,2.19c0.29,0.01,0.48-0.24,0.5-0.5c0.17-2.51-2.32-4.5-1.79-6.96
						c0.14-0.63-0.83-0.9-0.96-0.27c-0.26,1.23,0,2.18,0.51,3.31c0.49,1.11,1.13,2.06,1.29,3.3c-0.33,0.28-0.73,0.26-1.21-0.06
						c-0.8-0.11-1.36-0.54-1.69-1.29c-0.23-0.59-1.13-0.37-0.96,0.27c0.24,0.8,0.39,1.62,0.45,2.45c0.28,1.49-0.43,2.21-2.13,2.14
						c-0.76-1.2-0.5-2.89-0.39-4.22c0.05-0.58-0.82-0.65-0.98-0.13c-0.58,1.91-1.43,3.64-2.73,5.17c-0.55-0.12-1.09-0.25-1.64-0.37
						c0.06-0.81,0.21-1.61,0.43-2.39c0.33-1.34,0.93-2.65,1.47-3.91c0.25-0.59-0.48-1.03-0.86-0.5c-1.31,1.79-2.91,3.81-5.48,2.97
						c0.12,0.21,0.23,0.41,0.35,0.62c0.73-2.11,1.93-3.79,3.71-5.16c0.45-0.35,0.19-1.01-0.39-0.91c-0.48,0.05-0.95,0.1-1.43,0.15
						c-1.23,0.3-1.73-0.09-1.51-1.17c0.88-0.37,1.75-0.73,2.63-1.1c1.75-0.73,3.51-1.46,5.26-2.19
						C314.34,315.17,314.09,314.21,313.49,314.46L313.49,314.46z"/>
				</g>
				<g>
					<path class="st22" d="M315.48,311.15c1.12,2.41,3.41,3.96,6.04,4.2c0.64,0.06,0.64-0.94,0-1c-2.29-0.22-4.21-1.64-5.18-3.71
						C316.08,310.06,315.21,310.57,315.48,311.15L315.48,311.15z"/>
				</g>
				<g>
					<path class="st22" d="M317.28,308.35c0.85,2.97,3.86,4.23,6.53,5.16c0.61,0.21,0.87-0.75,0.27-0.96
						c-2.31-0.8-5.09-1.87-5.83-4.46C318.06,307.47,317.1,307.73,317.28,308.35L317.28,308.35z"/>
				</g>
				<g>
					<path class="st22" d="M334.18,345.67c10.46,4.17,21.65,5.57,32.85,5.19c10.49-0.35,22.64-1.51,31.55-7.54
						c0.53-0.36,0.03-1.23-0.5-0.86c-8.81,5.97-20.69,6.97-31.04,7.4c-11.08,0.47-22.25-1.04-32.59-5.16
						C333.84,344.47,333.59,345.43,334.18,345.67L334.18,345.67z"/>
				</g>
				<g>
					<path class="st22" d="M334.11,343.05c9.68,5.14,21.66,4.8,32.33,4.74c10.98-0.07,22.23-1.78,31.6-7.84
						c0.54-0.35,0.04-1.21-0.5-0.86c-9.28,6-20.25,7.56-31.1,7.7c-10.44,0.14-22.37,0.42-31.82-4.6
						C334.04,341.88,333.54,342.75,334.11,343.05L334.11,343.05z"/>
				</g>
			</g>
			<g>
				<path class="st22" d="M393.05,211.28c0.68-1.06,1.54-2.01,2.52-2.84c-0.48-15.54-10.78-28.97-25.34-34.02
					c-1.57,0.02-3.14,0.05-4.72,0.08c-0.26,0.74-0.01,1.66,0.97,1.91c15.4,3.99,26.36,17.76,26.1,33.77
					C392.57,210.67,392.76,211.03,393.05,211.28z"/>
			</g>
			<g>
				<path class="st22" d="M389.11,189.35c0.24-4.22,1.22-8.26,2.9-12.14c1.68-3.85,4.31-8.21,7.76-10.7
					c2.51-1.81,2.74,2.53,2.77,3.36c0.03,1.34-0.24,2.65-0.57,3.94c-0.54,2.12-1.63,4.07-2.82,5.88c-2.7,4.08-6.8,7.15-10.63,10.1
					c-0.5,0.39-0.01,1.26,0.5,0.86c4.71-3.62,9.36-7.34,12.3-12.6c1.45-2.59,4.19-9.9,0.9-12.24c-3.58-2.55-7.75,4.96-9.22,7.36
					c-2.98,4.87-4.57,10.52-4.89,16.19C388.07,190,389.07,189.99,389.11,189.35L389.11,189.35z"/>
			</g>
			<g>
				<path class="st22" d="M389.12,190.68c3.92-2.32,8.08-4,12.57-4.78c3.82-0.66,16.68-0.57,13.54,6.27
					c-2.04,4.45-10.34,3.96-14.24,3.3c-4.44-0.75-8.56-2.94-11.84-5.98c-0.47-0.44-1.18,0.27-0.71,0.71
					c4.09,3.79,9.14,5.98,14.68,6.57c4.01,0.42,11.87,0,13.32-4.84c1.65-5.52-4.93-6.86-9.03-7.26c-6.58-0.63-13.23,1.85-18.8,5.15
					C388.06,190.14,388.57,191.01,389.12,190.68L389.12,190.68z"/>
			</g>
			<g>
				<path class="st22" d="M360.4,178.79c-7.13-0.93-14.26-0.39-21.18,1.57c-4.58,1.3-10.57,3.6-12.41,8.47
					c-2.26,6.02,0.51,12.25,3.87,17.21c2.07,3.05,4.12,6,4.94,9.67c1.09,4.87-2.26,8.68-5.85,11.38
					c-4.09,3.08-10.45,5.98-10.3,11.97c0.06,2.52,2,4.76,3.49,6.61c2.38,2.94,4.6,5.96,4.63,9.9c0.03,4.44-3.91,5.78-6.89,8
					c-1.81,1.35-3.32,3.42-4.1,5.53c-1.99,5.43-0.37,11.26,4.08,14.95c0.49,0.41,1.2-0.3,0.71-0.71
					c-5.63-4.67-6.15-12.66-1.17-18.01c1.88-2.01,4.62-2.85,6.55-4.82c1.44-1.47,1.83-3.69,1.82-5.67
					c-0.04-5.96-5.78-9.33-7.8-14.41c-2.64-6.63,8.22-11.08,12.03-14.58c4.08-3.74,4.78-8.64,2.74-13.65
					c-1.09-2.67-2.89-5.01-4.49-7.38c-2.12-3.13-3.58-6.35-3.96-10.15c-0.81-8,5.78-11.36,12.37-13.37
					c6.76-2.05,13.94-2.45,20.91-1.54C361.04,179.88,361.03,178.88,360.4,178.79L360.4,178.79z"/>
			</g>
			<g>
				<path class="st22" d="M343.74,186.41c-3.29,0.77-8.76,2.91-9.28,6.88c-0.48,3.71,1.36,9.12,4.89,10.86
					c0.58,0.28,1.08-0.58,0.5-0.86c-2.89-1.43-3.75-4.81-4.39-7.72c-1.05-4.8,4.84-7.32,8.54-8.19
					C344.63,187.22,344.37,186.26,343.74,186.41L343.74,186.41z"/>
			</g>
			<g>
				<path class="st22" d="M339.86,232.49c-2.75,2.9-5.44,6.01-5.58,10.2c-0.14,4.1,3.35,7.62,5.36,10.85
					c2.22,3.57,1.03,5.96-1.8,8.44c-1.62,1.42-2.89,2.93-3.79,4.9c-1.44,3.14-0.8,6.81,1.5,9.32c0.44,0.48,1.14-0.23,0.71-0.71
					c-3.85-4.19-1.4-9.54,2.29-12.81c2.37-2.1,4.01-4.05,3.09-7.34c-1.03-3.66-4.38-6.41-5.82-9.93c-1.95-4.78,1.67-8.98,4.74-12.22
					C341.01,232.73,340.3,232.03,339.86,232.49L339.86,232.49z"/>
			</g>
			<g>
				<path class="st22" d="M350.52,240.01c-0.94,1.17-1.65,2.7-1.29,4.25c0.56,2.44,4.88,5.93,2.53,8.43
					c-0.44,0.47,0.27,1.18,0.71,0.71c1.16-1.24,1.15-2.6,0.63-4.16c-1.01-3.07-4.71-4.99-1.87-8.52
					C351.63,240.22,350.93,239.51,350.52,240.01L350.52,240.01z"/>
			</g>
			<g>
				<path class="st22" d="M364.33,181.09c2.7-3.24,6.88-4,10.84-4.62c0.64-0.1,0.36-1.06-0.27-0.96c-4.13,0.65-8.47,1.51-11.28,4.87
					C363.21,180.88,363.91,181.59,364.33,181.09L364.33,181.09z"/>
			</g>
			<g>
				<path class="st22" d="M368.6,177.1c-4.26,7.76,2.48,14.49,9.12,17.52c1.85,0.85,3.67,1.7,5.19,3.1
					c2.34,2.16,1.62,5.58,1.89,8.41c0.33,3.48,2.92,6.41,6.03,7.75c0.59,0.25,1.1-0.61,0.5-0.86c-4.44-1.92-5.64-5.72-5.65-10.23
					c-0.01-3.12-1.19-5.33-3.73-7.1c-2.96-2.06-6.48-2.91-9.32-5.23c-3.79-3.09-5.62-8.39-3.17-12.86
					C369.77,177.03,368.91,176.53,368.6,177.1L368.6,177.1z"/>
			</g>
			<g>
				<path class="st22" d="M371.34,177.5c2.62,5.8,8.02,9.19,12.78,13.08c5.84,4.78,9.96,11.24,11.86,18.53
					c0.16,0.62,1.13,0.36,0.96-0.27c-1.7-6.5-5.08-12.26-9.86-16.97c-5.05-4.98-11.83-8.13-14.88-14.88
					C371.94,176.41,371.08,176.92,371.34,177.5L371.34,177.5z"/>
			</g>
			<g>
				<path class="st22" d="M381.66,177.82c7.5,6.64,15.28,13.75,17.61,23.91c0.14,0.63,1.11,0.36,0.96-0.27
					c-2.36-10.33-10.24-17.6-17.87-24.35C381.89,176.69,381.18,177.4,381.66,177.82L381.66,177.82z"/>
			</g>
			<g>
				<path class="st22" d="M413.4,263.01c5.19,2.38,12.22,8.47,7.53,14.45c-0.39,0.5,0.31,1.21,0.71,0.71
					c5.12-6.54-1.8-13.3-7.73-16.03C413.32,261.88,412.81,262.74,413.4,263.01L413.4,263.01z"/>
			</g>
			<g>
				<path class="st22" d="M398.38,223.6c-4.54,5.92,4.53,10.19,8.58,12.67c1.68,1.03,3.27,2.27,3.9,4.23
					c0.64,2.02-0.74,4.19-1.76,5.82c-1.75,2.8-4.06,5.6-3.71,9.1c0.06,0.64,1.06,0.64,1,0c-0.62-6.12,8.64-10.98,4.5-17.11
					c-2.8-4.14-16.73-7.58-11.64-14.21C399.64,223.59,398.77,223.1,398.38,223.6L398.38,223.6z"/>
			</g>
			<g>
				<path class="st22" d="M391.04,226.55c-1.34,3.64-1.97,7.19,0.88,10.22c1.41,1.5,3.2,2.64,4.66,4.1
					c1.01,1.01,1.78,2.19,2.24,3.54c0.72,2.15-1.16,4.31-2.4,5.78c-0.41,0.49,0.29,1.2,0.71,0.71c2.52-3,3.93-6.12,1.2-9.52
					c-1.5-1.87-3.35-3.29-5.16-4.82c-3.16-2.69-2.42-6.31-1.16-9.75C392.23,226.21,391.26,225.95,391.04,226.55L391.04,226.55z"/>
			</g>
			<g>
				<path class="st22" d="M383.79,238.24c-0.91,4.27,4.97,6.55,3.81,10.6c-0.18,0.62,0.79,0.89,0.96,0.27
					c1.24-4.36-4.7-6.47-3.81-10.6C384.89,237.88,383.92,237.61,383.79,238.24L383.79,238.24z"/>
			</g>
			<g>
				<path class="st22" d="M377.64,240.44c-1.02,3.96,0.24,8.05,3.35,10.72c0.49,0.42,1.2-0.29,0.71-0.71
					c-2.85-2.44-4.03-6.11-3.09-9.74C378.77,240.09,377.8,239.82,377.64,240.44L377.64,240.44z"/>
			</g>
			<g>
				<g>
					<path class="st22" d="M300.89,127.67c-4.33-10.93-9.07-21.67-14.24-32.22c-0.57-1.16-2.29-0.14-1.73,1.01
						c5.09,10.4,9.77,20.98,14.04,31.74C299.43,129.39,301.37,128.87,300.89,127.67L300.89,127.67z"/>
				</g>
				<g>
					<path class="st22" d="M299.73,127.98c-3.5,2.02-7.15,3.63-11,4.85c-1.23,0.39-0.7,2.32,0.53,1.93
						c4.01-1.26,7.84-2.94,11.48-5.05C301.86,129.06,300.85,127.33,299.73,127.98L299.73,127.98z"/>
				</g>
				<g>
					<path class="st22" d="M289.76,133.42c-4.8-10.46-9.59-20.93-14.39-31.39c-0.54-1.17-2.26-0.15-1.73,1.01
						c4.8,10.46,9.59,20.93,14.39,31.39C288.57,135.6,290.3,134.58,289.76,133.42L289.76,133.42z"/>
				</g>
				<g>
					<path class="st22" d="M285.17,95.16c-3.69,1.74-7.29,3.65-10.79,5.74c-1.11,0.66-0.1,2.39,1.01,1.73c3.5-2.09,7.1-4,10.79-5.74
						C287.34,96.34,286.33,94.61,285.17,95.16L285.17,95.16z"/>
				</g>
				<g>
					<path class="st22" d="M286.27,94.64c-4.15-3.51-8.42-6.88-13.05-9.74c-0.64-0.39-1.52,0.11-1.5,0.86
						c0.12,5.39,0.87,10.7,1.47,16.04c0.14,1.27,2.14,1.28,2,0c-0.6-5.35-1.35-10.66-1.47-16.04c-0.5,0.29-1,0.58-1.5,0.86
						c4.49,2.77,8.63,6.02,12.65,9.43C285.83,96.88,287.25,95.47,286.27,94.64L286.27,94.64z"/>
				</g>
				<g>
					<path class="st22" d="M277.34,88.84c-0.26,1.69-2.1,2.01-3.51,2.23c-0.64,0.1-0.36,1.06,0.27,0.96
						c1.75-0.28,3.89-0.88,4.21-2.93C278.4,88.48,277.44,88.21,277.34,88.84L277.34,88.84z"/>
				</g>
				<g>
					<path class="st22" d="M297.94,130.29c-3.9-11.55-8.83-22.71-14.75-33.37c-0.31-0.56-1.18-0.06-0.86,0.5
						c5.88,10.59,10.77,21.66,14.64,33.14C297.18,131.16,298.15,130.9,297.94,130.29L297.94,130.29z"/>
				</g>
				<g>
					<path class="st22" d="M295.5,131.66c-4.57-11.34-9.61-22.48-15.11-33.4c-0.29-0.58-1.15-0.07-0.86,0.5
						c5.46,10.84,10.46,21.9,15,33.16C294.77,132.52,295.74,132.26,295.5,131.66L295.5,131.66z"/>
				</g>
				<g>
					<path class="st22" d="M292.54,132.7c-4.73-10.94-9.45-21.87-14.18-32.81c-0.26-0.59-1.12-0.08-0.86,0.5
						c4.73,10.94,9.45,21.87,14.18,32.81C291.93,133.8,292.79,133.29,292.54,132.7L292.54,132.7z"/>
				</g>
			</g>
			<g>
				<g>
					<path class="st22" d="M326.57,84.51c-5.55-5.28-15.16-2.36-15.97,5.39c-1.03,9.96,10.16,15.64,18.26,16.62
						c1.28,0.15,1.26-1.85,0-2c-6.13-0.74-11.53-3.26-14.78-8.7c-1.76-2.94-2.22-7.15,0.14-9.97c2.59-3.09,8.38-2.35,10.92,0.08
						C326.08,86.81,327.5,85.4,326.57,84.51L326.57,84.51z"/>
				</g>
				<g>
					<path class="st22" d="M327.33,86.04c1.75-3.49,4.79-5.1,8.62-5.38c5.97-0.43,6.05,6.83,5.43,10.46
						c-1.13,6.67-6.81,11.82-13.1,13.55c-1.24,0.34-0.71,2.27,0.53,1.93c8.47-2.33,16.7-11.33,14.71-20.74
						c-2.04-9.7-13.94-8.81-17.93-0.84C325.02,86.18,326.75,87.19,327.33,86.04L327.33,86.04z"/>
				</g>
				<g>
					<path class="st22" d="M319,89.72c0.11,0.75,0.21,1.5,0.32,2.26c0.08,0.54,0.76,0.83,1.23,0.7c0.58-0.16,0.77-0.69,0.7-1.23
						c-0.11-0.75-0.21-1.5-0.32-2.26c-0.08-0.54-0.76-0.83-1.23-0.7C319.13,88.65,318.93,89.18,319,89.72L319,89.72z"/>
				</g>
				<g>
					<path class="st22" d="M333.3,86.39c0.06,1.13,0.13,2.25,0.19,3.38c0.07,1.28,2.07,1.29,2,0c-0.06-1.13-0.13-2.25-0.19-3.38
						C335.23,85.11,333.23,85.1,333.3,86.39L333.3,86.39z"/>
				</g>
				<g>
					<path class="st22" d="M323.24,92.1c1.07,1.68,3.01,3.66,5.25,2.99c2.25-0.67,3.77-3.16,3.34-5.45
						c-0.24-1.27-2.16-0.73-1.93,0.53c0.22,1.16-0.85,2.85-2.06,3.01c-1.3,0.17-2.27-1.13-2.87-2.08
						C324.28,90,322.55,91.01,323.24,92.1L323.24,92.1z"/>
				</g>
			</g>
		</g>
	</g>
</g>
<g id="DESIGNED_BY_FREEPIK">
</g>
</svg>
